<svg width="270" height="255" viewBox="0 0 270 255" fill="none" xmlns="http://www.w3.org/2000/svg">
    <g clip-path="url(#clip0_517_670)">
        <rect width="270" height="255" rx="20" fill="url(#paint0_linear_517_670)"/>
        <path opacity="0.3" d="M103.164 29.1844C97.7678 33.2021 90.6666 32.3557 84.1785 31.7676C77.688 31.1823 70.2827 31.3994 65.8834 36.6922C62.3838 40.9024 61.2572 47.8441 56.4242 49.8915C51.2173 52.0955 45.4995 46.8768 40.0358 48.1052C36.9725 48.795 34.5672 51.4112 32.7552 54.2198C30.9431 57.0284 29.5223 60.1585 27.4012 62.6895C23.6076 67.2184 17.805 69.3784 12.2192 69.0514C6.63596 68.7244 1.29198 66.0862 -3.12228 62.302C-13.8427 53.115 -19.0097 36.1728 -14.1841 22.1822C-11.6318 14.7787 -6.62181 8.60642 -0.734459 4.06652C5.15289 -0.473375 11.9027 -3.48257 18.7671 -5.82397C32.8972 -10.6442 47.7826 -12.763 62.5608 -12.0595C70.8859 -11.6637 79.2707 -10.3501 86.9926 -6.89299C90.1631 -5.47496 93.199 -3.68318 95.9981 -1.50942C98.8047 0.669843 101.105 3.27506 103.466 5.99296C104.976 7.73252 106.93 9.27696 108.02 11.404C109.243 13.7894 109.136 17.0047 108.693 19.6099C108.039 23.4161 106.098 26.9996 103.164 29.1844Z" fill="#333333"/>
        <path opacity="0.3" d="M-18.734 106.387C-12.225 109.352 -5.41656 112.416 1.41512 111.739C4.74956 111.413 8.04039 110.084 10.962 107.445C13.718 104.956 16 101.394 18.3606 98.0694C20.6805 94.7964 23.1486 91.6866 26.0993 90.0315C28.9744 88.4183 32.0559 88.1665 35.0764 88.2691C41.3005 88.4836 48.2282 90.4884 53.7778 84.721C58.6792 79.6251 61.156 70.5474 64.662 63.3954C68.3627 55.847 73.4443 51.2172 79.1917 48.8068C85.3809 46.2099 91.7911 46.0793 98.146 45.7996C105.187 45.4872 112.475 44.9557 119.004 40.2653C129.531 32.703 135.999 13.5127 134.639 -4.77783C134.482 -6.90387 134.2 -9.0066 133.828 -11.0627C133.804 -11.1839 133.927 -11.2212 133.947 -11.1047C137.116 6.01089 132.935 25.6628 124.069 36.3862C112.885 49.9118 97.9745 45.0629 85.0117 47.8044C78.7818 49.1238 72.3687 52.1171 67.6854 59.1666C63.3945 65.624 61.1473 74.6783 57.1064 81.4714C55.1092 84.8329 52.6789 87.3226 49.8794 88.5675C46.8327 89.9196 43.6175 89.8916 40.4836 89.6678C37.1637 89.43 33.8206 88.9312 30.5036 89.4953C27.1691 90.0595 24.1864 91.9524 21.4944 95.1414C18.942 98.1627 16.7239 101.832 14.2296 104.965C11.7324 108.098 8.94159 110.401 5.85425 111.604C-0.640213 114.136 -7.57365 112.145 -13.914 109.399C-15.574 108.681 -17.2136 107.842 -18.8561 107.017C-19.1178 106.9 -18.9898 106.271 -18.734 106.387Z" fill="#5353C9"/>
        <path opacity="0.3" d="M303.035 136.517C298.185 136.263 293.452 134.835 289.061 132.759C284.53 130.618 280.389 127.808 276.529 124.617C273.656 123.502 270.856 122.121 268.117 120.637C269.02 122.238 270.276 123.647 271.402 125.064C273.143 127.256 274.889 129.448 276.628 131.645C279.58 135.362 282.747 139.078 284.562 143.551C285.093 144.853 286.46 148.007 284.134 148.351C283.286 148.477 282.461 148.107 281.743 147.691C280.724 147.109 279.799 146.38 278.938 145.579C275.65 142.5 273.018 138.566 270.958 134.548C268.64 130.035 266.925 125.024 266.357 119.94C266.348 119.839 266.371 119.763 266.412 119.695C265.208 119.021 264.018 118.335 262.839 117.645C258.229 114.956 253.754 112.036 249.436 108.891C249.013 108.583 248.602 108.264 248.179 107.95C251.462 112.763 254.758 117.571 258.022 122.4C259.735 124.934 261.466 127.463 263.136 130.029C264.686 132.413 266.316 134.827 267.47 137.446C267.898 138.42 268.594 139.778 268.401 140.884C268.228 141.892 267.245 142.031 266.435 141.757C263.914 140.897 261.828 138.813 260.005 136.93C256.391 133.201 253.396 128.863 251.098 124.172C249.801 121.518 248.732 118.722 247.952 115.861C247.209 113.127 246.791 110.26 247.074 107.432C247.037 107.381 247.001 107.325 246.97 107.275C246.918 107.199 246.902 107.097 246.921 107.004C243.245 104.208 239.686 101.255 236.268 98.142C237.932 103.559 239.729 108.927 241.663 114.247C242.713 117.136 243.825 119.995 244.918 122.858C245.895 125.427 246.798 128.055 247.203 130.791C247.302 131.452 247.366 132.117 247.394 132.784C247.415 133.326 247.477 133.937 247.223 134.433C246.825 135.196 245.943 135.231 245.235 134.918C244.207 134.459 243.401 133.389 242.707 132.531C241.85 131.463 241.11 130.303 240.442 129.108C237.827 124.451 235.978 119.239 234.828 114.007C233.576 108.304 233.165 102.194 234.424 96.4467C231.294 93.5115 228.279 90.4491 225.396 87.261C223.754 85.4455 222.156 83.5862 220.596 81.6943C221.32 87.8179 222.244 93.9163 223.387 99.9672C223.99 103.141 224.647 106.301 225.357 109.448C226.046 112.492 226.972 115.561 226.931 118.712C226.923 119.62 226.776 120.665 226.118 121.342C225.339 122.139 224.372 121.787 223.566 121.234C221.436 119.77 220.014 117.456 219.021 115.088C216.829 109.872 216.046 104.04 216.105 98.3965C216.137 95.2096 216.452 92.0459 216.986 88.912C217.259 87.2951 217.563 85.6747 217.968 84.0865C218.305 82.7718 218.804 81.5475 219.642 80.5174C214.906 74.6472 210.581 68.4424 206.722 61.9373C206.502 61.5687 206.293 61.1952 206.077 60.8272C206.019 60.763 205.965 60.7051 205.906 60.6409C206.401 66.9417 206.855 73.2391 207.297 79.5475C207.53 82.9105 207.764 86.2736 208.003 89.6371C208.221 92.7495 208.439 95.8678 208.383 98.9933C208.357 100.345 208.276 101.806 207.565 102.995C207.008 103.929 206.069 104.102 205.261 103.364C204.36 102.542 203.742 101.173 203.218 100.073C202.624 98.8362 202.15 97.5442 201.772 96.2243C200.184 90.719 199.915 84.7336 200.338 79.0367C200.824 72.4718 202.351 65.8496 205.128 59.8882C205.124 59.7928 205.114 59.7029 205.11 59.6075C205.106 59.5062 205.143 59.4024 205.208 59.3186C201.905 53.5123 198.956 47.4915 196.392 41.3063C196.498 47.0823 196.656 52.8625 196.925 58.634C197.075 61.8002 197.284 64.9592 197.44 68.1259C197.586 71.1195 197.636 74.1587 197.109 77.1269C196.87 78.4555 196.295 82.477 194.163 81.9222C193.045 81.6346 192.45 79.9703 192.05 79.005C191.532 77.7568 191.171 76.4443 190.886 75.1143C189.679 69.4323 189.475 63.4285 190.016 57.6461C190.329 54.2863 190.914 50.9487 191.766 47.6865C192.568 44.6221 193.557 41.472 195.414 38.892C194.823 37.4002 194.249 35.904 193.706 34.3983C192.256 30.3773 190.963 26.2919 189.825 22.1538C189.787 22.121 189.748 22.0941 189.71 22.0613C189.601 21.9692 189.552 21.8582 189.538 21.7442C187.696 27.6516 185.842 33.5521 183.995 39.4531C183.014 42.58 182.038 45.7133 181.017 48.8252C180.059 51.7283 179.125 54.77 177.627 57.4448C177.146 58.3022 176.369 59.8066 175.33 60.066C174.268 60.3294 173.778 59.0954 173.517 58.284C172.733 55.8381 172.715 53.2172 173.009 50.6873C173.658 45.1396 175.514 39.6432 178.002 34.6856C180.781 29.1461 184.562 24.0271 189.239 20.0033C187.949 15.0093 186.908 9.94666 186.161 4.83693C185.98 3.59856 185.817 2.35572 185.66 1.10744C185.608 0.669555 186.26 0.592317 186.324 1.02525C187.326 7.53979 188.68 14.0001 190.398 20.3654C195.857 20.6405 201.257 21.8788 206.358 23.8767C211.6 25.9336 216.79 28.7168 221.136 32.3754C222.151 33.2306 223.114 34.1352 224.027 35.1009C224.896 36.0214 225.909 37.0488 226.48 38.2004C226.891 39.0359 226.78 40.0008 225.828 40.3386C224.72 40.7348 223.187 40.4726 222.062 40.2795C219.318 39.8111 216.726 38.684 214.199 37.5326C211.487 36.2948 208.83 34.9486 206.229 33.4822C200.955 30.5198 195.931 27.1028 191.213 23.2891C191.915 25.7284 192.677 28.1488 193.493 30.5499C194.437 33.3238 195.463 36.0747 196.551 38.795C198.755 38.7321 200.952 39.417 203.029 40.0861C205.343 40.834 207.648 41.6346 209.902 42.5558C214.32 44.3611 218.621 46.6142 222.334 49.6803C224.153 51.1775 225.816 52.87 227.231 54.7678C227.752 55.4638 228.403 56.414 228.109 57.3402C227.791 58.3417 226.636 58.3005 225.795 58.2732C220.579 58.0834 215.865 54.6502 211.701 51.7728C206.991 48.5181 202.399 45.0831 197.755 41.7328C200.14 47.3748 202.833 52.8875 205.831 58.2115C206.061 58.6163 206.302 59.0222 206.538 59.4275C212.521 60.7968 218.522 62.1498 224.387 63.9904C229.711 65.6621 235.092 67.7363 239.445 71.3835C240.46 72.2328 241.403 73.1714 242.253 74.1973C242.96 75.0451 243.911 76.1031 243.863 77.2989C243.752 79.9389 240.044 79.742 238.287 79.5921C232.311 79.0846 226.842 76.1538 221.835 72.9698C217.526 70.229 213.092 67.383 209.228 63.9422C212.803 69.6995 216.741 75.2133 221.009 80.4512C226.885 81.4732 232.798 82.4803 238.615 83.8123C243.833 85.0059 249.093 86.607 253.574 89.6767C254.695 90.4396 255.744 91.2977 256.709 92.2618C257.582 93.1292 258.507 94.09 259.101 95.184C259.573 96.0542 259.773 97.1932 258.936 97.9146C258.062 98.6685 256.594 98.6195 255.522 98.5614C252.724 98.4093 250.066 97.2234 247.517 96.1296C244.631 94.8893 241.781 93.557 238.973 92.139C233.424 89.3264 228.03 86.1879 222.867 82.6882C223.085 82.9496 223.303 83.211 223.527 83.4669C230.52 91.6068 238.335 99.0003 246.781 105.543C247.11 105.801 247.452 106.043 247.786 106.296C249.475 105.253 251.363 104.629 253.262 104.09C255.566 103.435 257.889 102.83 260.234 102.381C264.872 101.495 269.699 101.297 274.256 102.745C276.492 103.457 278.632 104.577 280.417 106.131C281.059 106.688 281.853 107.383 281.754 108.343C281.657 109.273 280.799 109.886 280.022 110.221C277.901 111.14 275.417 111.215 273.146 111.166C270.526 111.111 267.93 110.756 265.335 110.389C260.151 109.656 254.977 108.792 249.829 107.83C255.15 111.746 260.715 115.309 266.47 118.518C266.578 118.337 266.786 118.2 267.037 118.274C267.099 118.291 267.162 118.308 267.225 118.325C271.383 116.509 275.543 114.391 280.036 113.643C284.187 112.949 288.547 113.289 292.526 114.69C293.573 115.061 294.597 115.495 295.587 116.004C296.341 116.392 297.188 116.788 297.771 117.436C299.182 119.013 297.294 120.295 295.968 120.953C294.187 121.835 292.158 122.102 290.197 122.185C287.85 122.284 285.489 122.197 283.151 122.041C278.22 121.708 273.339 120.899 268.55 119.657C270.358 120.631 272.174 121.569 274.017 122.469C274.381 122.647 274.739 122.825 275.097 123.009C275.158 122.978 275.234 122.972 275.311 123.026C275.437 123.12 275.57 123.214 275.702 123.308C276.322 123.626 276.937 123.943 277.556 124.279C277.685 124.349 277.74 124.461 277.742 124.574C285.676 128.045 294.93 126.992 302.768 130.859C304.168 131.55 306.528 132.604 306.744 134.428C307.025 136.601 304.42 136.589 303.035 136.517ZM174.375 47.5504C173.831 50.0063 173.449 52.5409 173.65 55.0639C173.749 56.3133 173.963 57.6494 174.465 58.8012C174.991 60.0144 175.812 59.0601 176.278 58.4569C176.738 57.865 177.128 57.2138 177.466 56.5407C178.756 53.9914 179.609 51.1688 180.477 48.4483C181.383 45.6062 182.25 42.7432 183.145 39.9002C185.082 33.7452 187.013 27.5957 188.956 21.4471C181.874 28.6417 176.585 37.5155 174.375 47.5504ZM203.743 30.9443C208.389 33.7661 213.279 36.3644 218.344 38.2999C219.231 38.6399 226.011 40.8109 225.97 38.9841C225.958 38.407 225.282 37.7636 224.942 37.3556C224.527 36.8584 224.101 36.372 223.661 35.9024C222.744 34.9185 221.769 34.0012 220.744 33.1391C216.703 29.7373 212.038 27.0743 207.216 25.0161C201.925 22.7651 196.324 21.3499 190.599 21.0531C190.658 21.2599 190.712 21.4662 190.771 21.673C194.87 25.0737 199.203 28.1787 203.743 30.9443ZM195.566 39.8428C193.248 44.4877 192.031 49.7692 191.311 54.8894C190.546 60.3446 190.489 65.9052 191.166 71.3716C191.48 73.9335 191.896 76.5394 192.911 78.9212C193.167 79.5123 193.436 80.1521 193.814 80.6701C194.396 81.4721 195.042 81.1805 195.45 80.4418C196.082 79.2879 196.288 77.7961 196.478 76.505C196.894 73.6763 196.802 70.8059 196.632 67.9647C196.459 65.0877 196.269 62.2092 196.125 59.3287C195.809 52.8346 195.597 46.3373 195.566 39.8428ZM208.949 48.9161C211.046 50.4185 213.17 51.8814 215.348 53.2536C217.42 54.5579 219.554 55.8197 221.863 56.6384C223.012 57.0473 224.2 57.3288 225.408 57.4278C225.714 57.4529 226.027 57.4667 226.336 57.4623C226.773 57.4624 226.954 57.5188 227.239 57.1502C227.512 56.7983 227.449 56.6387 227.277 56.2327C227.135 55.9062 226.929 55.634 226.719 55.3554C225.375 53.5941 223.833 51.9829 222.154 50.5564C218.759 47.659 214.837 45.4726 210.776 43.7084C208.538 42.7351 206.249 41.8823 203.943 41.0994C201.631 40.322 199.326 39.5332 196.888 39.6008C196.995 39.8708 197.102 40.135 197.214 40.4055C201.1 43.272 205.018 46.0995 208.949 48.9161ZM201.729 92.5859C202.172 95.1464 202.873 97.6806 204.008 100.019C204.293 100.606 204.603 101.172 204.948 101.729C205.33 102.348 205.949 103.563 206.808 102.927C207.334 102.536 207.479 101.366 207.562 100.761C207.664 99.9916 207.662 99.2134 207.653 98.4405C207.613 92.4264 206.963 86.3921 206.532 80.3935C206.077 74.1019 205.639 67.8118 205.238 61.5127C201.523 71.3708 199.915 82.0906 201.729 92.5859ZM219.592 70.4458C224.282 73.5861 229.218 76.7108 234.724 78.0884C236.07 78.4244 237.437 78.6493 238.82 78.7448C239.972 78.8213 241.455 78.9726 242.466 78.2595C243.803 77.3178 242.463 75.8003 241.741 74.9334C240.885 73.907 239.936 72.968 238.922 72.1128C234.942 68.7456 230.047 66.7171 225.184 65.0892C219.239 63.0935 213.155 61.6031 207.034 60.2819C207.157 60.4939 207.28 60.7059 207.403 60.9179C211.041 64.6254 215.31 67.5826 219.592 70.4458ZM217.995 88.4305C217.539 91.0243 217.22 93.6531 217.058 96.2829C216.733 101.626 217.142 107.094 218.737 112.214C219.489 114.621 220.467 117.03 222.1 118.963C222.696 119.665 224.408 121.623 225.434 121.012C226.411 120.427 226.282 118.682 226.224 117.727C226.057 114.851 225.209 112.049 224.569 109.258C223.907 106.383 223.298 103.5 222.731 100.608C221.512 94.3374 220.529 88.0264 219.765 81.6797C218.669 83.6807 218.377 86.2641 217.995 88.4305ZM236.441 89.8706C238.963 91.2295 241.527 92.5086 244.125 93.7075C246.656 94.8771 249.214 96.0786 251.861 96.9666C253.13 97.3914 254.444 97.7068 255.783 97.7631C256.972 97.813 259.373 97.7662 258.601 95.9033C258.118 94.7352 257.031 93.6958 256.151 92.8397C255.265 91.9772 254.303 91.1916 253.301 90.4799C249.115 87.5116 244.135 85.8919 239.22 84.6993C233.831 83.3906 228.359 82.5502 222.899 81.6277C227.283 84.6002 231.788 87.3689 236.441 89.8706ZM234.906 96.896C234.369 101.615 234.378 106.332 235.14 111.033C235.943 116.005 237.491 120.842 239.561 125.407C240.63 127.763 241.837 130.078 243.452 132.093C244.024 132.805 245.034 134.301 246.076 134.298C247.204 134.295 246.574 131.238 246.458 130.504C246.041 127.922 245.131 125.448 244.189 123.024C243.16 120.38 242.113 117.74 241.119 115.081C238.899 109.12 236.871 103.08 235.009 96.9935C234.977 96.9612 234.944 96.9288 234.906 96.896ZM250.93 121.593C252.836 126.019 255.358 130.158 258.429 133.843C260.017 135.755 261.729 137.635 263.672 139.178C264.242 139.629 264.837 140.046 265.472 140.401C265.89 140.637 266.912 141.321 267.409 141.064C267.822 140.849 267.689 140.173 267.6 139.833C267.52 139.523 267.416 139.218 267.307 138.912C267.087 138.306 266.838 137.709 266.558 137.128C265.386 134.668 263.84 132.374 262.345 130.101C260.824 127.785 259.255 125.494 257.697 123.199C254.342 118.261 251.018 113.302 247.687 108.349C247.731 112.932 249.137 117.431 250.93 121.593ZM261.828 108.979C266.444 109.69 271.228 110.617 275.908 110.228C277.238 110.117 282.597 109.374 280.318 107.156C278.736 105.613 276.753 104.494 274.702 103.732C270.468 102.162 265.883 102.166 261.476 102.862C258.984 103.252 256.533 103.853 254.096 104.509C252.176 105.023 250.256 105.602 248.53 106.601C252.945 107.491 257.373 108.294 261.828 108.979ZM270.715 131.963C272.417 135.814 274.643 139.43 277.313 142.666C278.778 144.443 280.46 146.262 282.531 147.299C283.504 147.788 285.028 147.943 284.763 146.294C284.586 145.222 284.068 144.122 283.622 143.147C281.741 139.067 278.745 135.62 275.964 132.167C274.148 129.91 272.331 127.652 270.521 125.39C269.447 124.048 268.267 122.71 267.403 121.202C268.157 124.899 269.186 128.499 270.715 131.963ZM280.423 120.927C282.609 121.165 284.804 121.303 287.005 121.353C289.014 121.399 291.061 121.412 293.046 121.04C293.879 120.883 294.706 120.648 295.489 120.308C295.935 120.119 296.354 119.892 296.765 119.629C297.342 119.254 298.001 118.791 297.465 118.07C296.928 117.355 295.894 116.968 295.127 116.596C294.269 116.181 293.391 115.812 292.49 115.501C288.726 114.183 284.689 113.727 280.738 114.253C276.392 114.829 272.431 116.791 268.51 118.697C272.412 119.748 276.402 120.496 280.423 120.927ZM304.364 132.819C303.44 132.221 302.456 131.712 301.449 131.28C297.545 129.594 293.291 129.019 289.134 128.322C285.654 127.74 282.212 127.054 279 125.669C285.337 130.048 292.167 133.94 299.778 135.181C300.898 135.362 302.028 135.491 303.164 135.548C303.871 135.588 305.504 135.829 305.826 134.917C306.147 134.034 304.967 133.207 304.364 132.819Z" fill="#5353C9"/>
        <path d="M20.36 26.188C20.36 25.788 20.472 25.444 20.696 25.156C20.928 24.86 21.244 24.632 21.644 24.472C22.044 24.312 22.508 24.232 23.036 24.232C23.316 24.232 23.612 24.256 23.924 24.304C24.236 24.344 24.512 24.408 24.752 24.496V24.04C24.752 23.56 24.608 23.184 24.32 22.912C24.032 22.632 23.624 22.492 23.096 22.492C22.752 22.492 22.42 22.556 22.1 22.684C21.788 22.804 21.456 22.98 21.104 23.212L20.72 22.468C21.128 22.188 21.536 21.98 21.944 21.844C22.352 21.7 22.776 21.628 23.216 21.628C24.016 21.628 24.648 21.852 25.112 22.3C25.576 22.74 25.808 23.356 25.808 24.148V26.8C25.808 27.048 25.92 27.176 26.144 27.184V28C26.04 28.016 25.948 28.028 25.868 28.036C25.796 28.044 25.736 28.048 25.688 28.048C25.44 28.048 25.252 27.98 25.124 27.844C25.004 27.708 24.936 27.564 24.92 27.412L24.896 27.016C24.624 27.368 24.268 27.64 23.828 27.832C23.388 28.024 22.952 28.12 22.52 28.12C22.104 28.12 21.732 28.036 21.404 27.868C21.076 27.692 20.82 27.46 20.636 27.172C20.452 26.876 20.36 26.548 20.36 26.188ZM24.44 26.632C24.536 26.52 24.612 26.408 24.668 26.296C24.724 26.176 24.752 26.076 24.752 25.996V25.216C24.24 25.016 23.712 24.916 23.168 24.916C22.632 24.916 22.196 25.024 21.86 25.24C21.532 25.448 21.368 25.736 21.368 26.104C21.368 26.304 21.42 26.5 21.524 26.692C21.636 26.876 21.796 27.028 22.004 27.148C22.22 27.268 22.484 27.328 22.796 27.328C23.124 27.328 23.436 27.264 23.732 27.136C24.028 27 24.264 26.832 24.44 26.632ZM30.8085 22.66C30.2805 22.668 29.8125 22.804 29.4045 23.068C29.0045 23.324 28.7205 23.68 28.5525 24.136V28H27.4965V21.736H28.4805V23.188C28.6965 22.756 28.9805 22.408 29.3325 22.144C29.6925 21.872 30.0685 21.72 30.4605 21.688C30.5405 21.688 30.6085 21.688 30.6645 21.688C30.7205 21.688 30.7685 21.692 30.8085 21.7V22.66ZM35.0959 27.688C34.9679 27.744 34.7639 27.824 34.4839 27.928C34.2119 28.032 33.9079 28.084 33.5719 28.084C33.1879 28.084 32.8559 27.98 32.5759 27.772C32.2959 27.556 32.1559 27.224 32.1559 26.776V22.564H31.3039V21.736H32.1559V19.648H33.2119V21.736H34.6159V22.564H33.2119V26.452C33.2279 26.676 33.3039 26.844 33.4399 26.956C33.5759 27.06 33.7359 27.112 33.9199 27.112C34.1279 27.112 34.3199 27.076 34.4959 27.004C34.6719 26.932 34.7879 26.88 34.8439 26.848L35.0959 27.688ZM36.0747 20.56V19.24H37.1307V20.56H36.0747ZM36.0747 28V21.736H37.1307V28H36.0747ZM41.6123 28.12C40.9883 28.12 40.4363 27.972 39.9563 27.676C39.4763 27.372 39.1003 26.972 38.8283 26.476C38.5563 25.98 38.4203 25.44 38.4203 24.856C38.4203 24.264 38.5523 23.724 38.8163 23.236C39.0803 22.748 39.4523 22.36 39.9323 22.072C40.4123 21.776 40.9683 21.628 41.6003 21.628C42.2163 21.628 42.7523 21.768 43.2083 22.048C43.6723 22.32 44.0163 22.688 44.2403 23.152L43.2083 23.476C43.0483 23.18 42.8243 22.952 42.5363 22.792C42.2483 22.624 41.9283 22.54 41.5763 22.54C41.1923 22.54 40.8403 22.64 40.5203 22.84C40.2083 23.04 39.9603 23.316 39.7763 23.668C39.5923 24.012 39.5003 24.408 39.5003 24.856C39.5003 25.296 39.5923 25.696 39.7763 26.056C39.9683 26.408 40.2203 26.688 40.5323 26.896C40.8523 27.104 41.2043 27.208 41.5883 27.208C41.8363 27.208 42.0723 27.164 42.2963 27.076C42.5283 26.988 42.7283 26.872 42.8963 26.728C43.0723 26.576 43.1923 26.412 43.2563 26.236L44.2883 26.548C44.1043 27.004 43.7683 27.38 43.2803 27.676C42.8003 27.972 42.2443 28.12 41.6123 28.12ZM45.5088 19.24H46.5648V26.38C46.5648 26.724 46.6128 26.936 46.7088 27.016C46.8048 27.096 46.9208 27.136 47.0568 27.136C47.2248 27.136 47.3848 27.12 47.5368 27.088C47.6888 27.048 47.8168 27.008 47.9208 26.968L48.0888 27.832C47.9128 27.904 47.7048 27.964 47.4648 28.012C47.2248 28.06 47.0128 28.084 46.8288 28.084C46.4208 28.084 46.0968 27.968 45.8568 27.736C45.6248 27.504 45.5088 27.18 45.5088 26.764V19.24ZM51.6904 28.12C51.0664 28.12 50.5144 27.972 50.0344 27.676C49.5544 27.38 49.1784 26.984 48.9064 26.488C48.6344 25.992 48.4984 25.452 48.4984 24.868C48.4984 24.276 48.6344 23.736 48.9064 23.248C49.1784 22.76 49.5544 22.368 50.0344 22.072C50.5224 21.776 51.0784 21.628 51.7024 21.628C52.3344 21.628 52.8824 21.78 53.3464 22.084C53.8184 22.38 54.1824 22.772 54.4384 23.26C54.7024 23.74 54.8344 24.26 54.8344 24.82C54.8344 24.996 54.8264 25.132 54.8104 25.228H49.6144C49.6464 25.636 49.7584 26 49.9504 26.32C50.1504 26.632 50.4064 26.88 50.7184 27.064C51.0304 27.24 51.3664 27.328 51.7264 27.328C52.1104 27.328 52.4704 27.232 52.8064 27.04C53.1504 26.848 53.3864 26.596 53.5144 26.284L54.4264 26.536C54.2264 27 53.8784 27.38 53.3824 27.676C52.8864 27.972 52.3224 28.12 51.6904 28.12ZM49.5784 24.496H53.8504C53.8184 24.088 53.7024 23.728 53.5024 23.416C53.3024 23.104 53.0464 22.86 52.7344 22.684C52.4224 22.508 52.0784 22.42 51.7024 22.42C51.3344 22.42 50.9944 22.508 50.6824 22.684C50.3704 22.86 50.1144 23.104 49.9144 23.416C49.7224 23.728 49.6104 24.088 49.5784 24.496Z" fill="#FDF2F2"/>
        <rect x="10.5" y="10.5" width="55" height="27" rx="13.5" stroke="#FDF2F2"/>
    </g>
    <defs>
        <linearGradient id="paint0_linear_517_670" x1="270" y1="0" x2="-14.6082" y2="206.057" gradientUnits="userSpaceOnUse">
            <stop stop-color="#FFEACC"/>
            <stop offset="1" stop-color="#FFCDEC"/>
        </linearGradient>
        <clipPath id="clip0_517_670">
            <rect width="270" height="255" rx="20" fill="white"/>
        </clipPath>
    </defs>
</svg>
