<svg width="94" height="94" viewBox="0 0 94 94" fill="none" xmlns="http://www.w3.org/2000/svg">
    <path d="M0.242188 12C0.242188 5.37257 5.61477 0 12.2422 0H81.2422C87.8696 0 93.2422 5.37258 93.2422 12V81.6C93.2422 88.2274 87.8696 93.6 81.2422 93.6H12.2422C5.61477 93.6 0.242188 88.2274 0.242188 81.6V12Z" fill="white"/>
    <path d="M88.5502 92.8832H67.3467V92.0927C67.3467 91.4063 67.5712 90.748 67.9706 90.2627C68.3701 89.7773 68.9119 89.5047 69.4769 89.5047H86.42C86.985 89.5047 87.5268 89.7773 87.9263 90.2627C88.3257 90.748 88.5502 91.4063 88.5502 92.0927V92.8832Z" fill="#E6E6E6"/>
    <path d="M77.4522 89.6624L78.097 89.3469C71.3503 69.0005 72.0002 43.3319 77.7034 21.3128C78.3809 18.7616 78.4298 16.0254 77.844 13.4409C77.2583 10.8563 76.0634 8.53622 74.4065 6.76595C71.0962 3.1769 66.5325 2.30257 62.4955 4.48395C58.5108 6.63749 57.9616 10.3886 57.9616 14.1215H58.6568C58.6568 10.1368 59.3577 7.10424 62.7781 5.25568C66.5617 3.21133 70.8399 4.03132 73.9436 7.39623C75.4999 9.05889 76.6221 11.238 77.1723 13.6655C77.7225 16.093 77.6766 18.663 77.0403 21.0592C71.2713 43.3326 70.6594 69.1775 77.4522 89.6624Z" fill="#E6E6E6"/>
    <path d="M58.483 26.5798C59.8268 26.5798 60.9162 25.2563 60.9162 23.6236C60.9162 21.9909 59.8268 20.6674 58.483 20.6674C57.1392 20.6674 56.0498 21.9909 56.0498 23.6236C56.0498 25.2563 57.1392 26.5798 58.483 26.5798Z" fill="#E6E6E6"/>
    <path d="M54.7357 28.7771V23.1758H55.4525V28.7771C55.6582 28.8782 55.8285 29.063 55.9342 29.2998C56.04 29.5367 56.0747 29.8109 56.0323 30.0755C55.99 30.34 55.8732 30.5784 55.702 30.7498C55.5308 30.9212 55.3159 31.0149 55.0941 31.0149C54.8723 31.0149 54.6574 30.9212 54.4862 30.7498C54.315 30.5784 54.1982 30.34 54.1559 30.0755C54.1135 29.8109 54.1482 29.5367 54.254 29.2998C54.3597 29.063 54.53 28.8782 54.7357 28.7771Z" fill="#E6E6E6"/>
    <path d="M51.2703 18.8725C51.2715 17.5849 51.6931 16.3505 52.4425 15.44C53.1919 14.5295 54.2079 14.0174 55.2677 14.0159H61.8721C62.9322 14.0159 63.949 14.5276 64.6986 15.4384C65.4483 16.3492 65.8694 17.5845 65.8694 18.8725C65.8694 20.1606 65.4483 21.3959 64.6986 22.3067C63.949 23.2175 62.9322 23.7291 61.8721 23.7291H55.2677C54.2079 23.7277 53.1919 23.2155 52.4425 22.305C51.6931 21.3946 51.2715 20.1601 51.2703 18.8725Z" fill="#9347B2"/>
    <path d="M41.9651 48.9478C42.6282 38.6407 46.0185 33.7298 43.8476 30.6502C41.7682 27.7002 35.9107 28.3096 32.149 31.1403C22.0026 38.7752 18.2854 69.2053 31.3422 84.0727C43.7494 98.2005 67.2636 93.6757 72.4892 82.1122C73.7085 79.4141 74.6771 74.6843 72.8926 71.8198C68.4622 64.7081 52.3541 77.5893 45.1923 69.5326C40.948 64.7579 41.6012 54.6043 41.9651 48.9478Z" fill="#3F3D56"/>
    <path d="M49.7211 43.8271C49.4746 43.9649 49.2821 44.214 49.1846 44.5215C49.087 44.829 49.0921 45.1707 49.1987 45.4737C49.2211 45.5349 49.2477 45.5937 49.2782 45.6496L47.1004 49.1825L48.1871 51.1558L50.7397 45.9243C50.9206 45.7529 51.0497 45.5137 51.1068 45.2438C51.164 44.974 51.146 44.6887 51.0557 44.4326C51.0032 44.2874 50.9276 44.1563 50.8333 44.0466C50.7391 43.9369 50.628 43.8509 50.5063 43.7934C50.3847 43.7359 50.255 43.7081 50.1245 43.7115C49.994 43.7149 49.8654 43.7495 49.7459 43.8134C49.7376 43.8178 49.7293 43.8224 49.7211 43.8271Z" fill="#FFB6B6"/>
    <path d="M49.7193 49.9184C49.8618 50.072 49.4665 50.2615 49.0483 49.9625C48.9286 49.8759 48.8775 49.84 48.8641 49.8628C48.8305 49.92 49.0268 50.3415 48.9744 51.2776C48.9421 51.8364 48.1783 52.8869 47.311 53.9112C46.1384 55.2966 44.7749 56.633 44.7749 56.633L39.2766 51.2776L38.4294 49.853C38.507 49.2905 38.6235 48.7368 38.7777 48.1981C38.9901 47.4523 39.2425 46.7243 39.5334 46.0187C39.6894 45.6348 39.8494 45.2688 40.0027 44.9323L44.9457 51.5488C44.9457 51.5488 45.6019 50.2647 46.1102 49.9151C46.175 49.8648 46.2488 49.834 46.3254 49.8253C46.839 49.7959 46.87 49.4561 46.2743 48.716C45.6786 47.9759 46.4302 48.667 46.96 48.4677C47.4898 48.2683 46.96 48.4677 47.0716 47.9694C47.1833 47.4711 48.6691 46.4712 48.6691 46.4712L48.731 46.5382L50.1752 48.087C50.1752 48.087 49.8242 49.2567 49.7274 49.5034C49.6306 49.7501 49.5781 49.7632 49.7193 49.9184Z" fill="#9347B2"/>
    <path d="M79.3179 72.6133L79.3726 70.8112L73.6777 69.6972L73.5969 72.3567L79.3179 72.6133Z" fill="#FFB6B6"/>
    <path d="M78.2841 73.1558L78.2301 70.2705L79.2453 70.316L80.8843 67.6487C80.9653 67.5169 81.0788 67.4201 81.2082 67.3722C81.3377 67.3244 81.4763 67.3281 81.6039 67.3827C81.7316 67.4374 81.8414 67.5402 81.9176 67.6762C81.9937 67.8121 82.032 67.974 82.027 68.1383L81.9229 71.5658L80.9008 72.1116L81.898 72.3872L81.8587 73.6795L78.2841 73.1558Z" fill="#2F2E41"/>
    <path d="M47.2663 73.3148L65.3042 73.8705C65.3042 73.8705 73.0935 74.4171 74.9211 72.9727L76.8484 72.6771L76.9528 69.2377C76.9528 69.2377 75.7743 69.2482 75.0967 68.8647C74.4192 68.4811 74.8901 68.0118 74.244 68.4733C73.598 68.9347 73.6663 68.9902 73.1668 68.7782C72.6673 68.5661 49.7627 64.3245 49.7627 64.3245L47.2663 73.3148Z" fill="#2F2E41"/>
    <path d="M71.0354 71.8223L72.0844 70.5466L68.5331 65.024L66.985 66.907L71.0354 71.8223Z" fill="#FFB6B6"/>
    <path d="M69.9739 70.7124L71.5495 68.5526L72.2683 69.4249L74.963 68.8238C75.0961 68.7941 75.2335 68.8169 75.3552 68.8888C75.4769 68.9607 75.5764 69.0779 75.6394 69.2235C75.7023 69.369 75.7253 69.5352 75.705 69.6977C75.6847 69.8603 75.6222 70.0107 75.5266 70.127L73.5316 72.5536L72.4767 72.1091L73.0535 73.1352L72.3013 74.0502L69.9739 70.7124Z" fill="#2F2E41"/>
    <path d="M40.1499 61.3127L40.3292 66.3771C40.5403 72.3391 45.9445 75.9476 50.135 72.8347C50.2122 72.7773 50.2897 72.7179 50.3674 72.6564C50.3674 72.6564 51.9561 72.138 51.9079 71.3172C51.8596 70.4963 52.2477 70.0968 52.5912 70.3207C52.9346 70.5445 57.4315 62.7908 57.4315 62.7908C57.4315 62.7908 66.7745 68.4531 68.8356 69.786C68.8356 69.786 70.7735 66.1047 70.633 66.1433C70.4925 66.1819 59.0746 56.4725 59.0746 56.4725C59.0746 56.4725 57.2145 54.1853 54.9071 55.6955C54.859 55.9173 54.9001 55.9251 54.9001 55.9251L47.2779 63.471L46.2009 60.986L40.1499 61.3127Z" fill="#2F2E41"/>
    <path d="M47.3365 54.9813C47.3221 55.2152 47.2947 55.4478 47.2545 55.6772C47.1996 56.0094 47.1111 56.3321 46.991 56.6379C46.991 56.6379 46.991 56.9793 46.4531 58.1229C45.9152 59.2665 46.5876 58.7764 46.991 59.6259C47.3944 60.4738 46.991 60.0834 46.5432 60.629C46.4143 60.7878 46.3227 60.9857 46.278 61.202C46.2333 61.4184 46.2371 61.6453 46.289 61.8592C46.289 61.8592 40.5123 61.8641 39.4366 61.374C38.3608 60.8839 38.1161 58.1229 39.0802 57.8501C40.043 57.5773 38.7884 57.3061 38.2223 56.6771C37.6562 56.0481 38.7884 55.0189 38.7884 55.0189C38.7884 55.0189 38.3218 54.0403 38.3608 50.7549C38.3663 50.4527 38.3893 50.1513 38.4294 49.853C38.507 49.2905 38.6235 48.7368 38.7777 48.1981C38.9901 47.4523 39.2425 46.7243 39.5334 46.0187C39.6894 45.6348 39.8494 45.2688 40.0027 44.9323C40.0269 44.88 40.0497 44.8294 40.074 44.7787C40.3657 44.1514 40.632 43.6384 40.8081 43.31C40.944 43.0552 41.026 42.9114 41.026 42.9114L42.0049 40.8431L45.2725 42.7039L45.0869 45.7475L46.1102 49.9151L46.4195 51.178C46.4195 51.178 46.3347 51.1829 46.4356 51.3512C46.9001 52.1014 47.2012 52.9819 47.311 53.9112C47.3497 54.2659 47.3583 54.6245 47.3365 54.9813Z" fill="#9347B2"/>
    <path d="M56.7729 55.3093L56.7115 55.2852L48.8908 52.2254L51.7727 40.7385C51.8301 40.5097 51.9294 40.2998 52.0633 40.1245C52.1972 39.9492 52.3621 39.8131 52.5455 39.7265C52.729 39.6399 52.9262 39.605 53.1224 39.6245C53.3186 39.6439 53.5086 39.7172 53.678 39.8389L58.6758 43.4263C59.0714 43.71 59.3724 44.1535 59.5262 44.6795C59.6799 45.2054 59.6767 45.7802 59.517 46.3035L56.7729 55.3093Z" fill="#2F2E41"/>
    <path d="M56.8046 56.0395L48.9209 52.9551L51.8028 41.4682C51.8602 41.2394 51.9596 41.0295 52.0935 40.8542C52.2274 40.6789 52.3922 40.5428 52.5757 40.4562C52.7592 40.3696 52.9564 40.3347 53.1526 40.3542C53.3488 40.3736 53.5387 40.4469 53.7082 40.5686L58.9446 43.7449C59.7313 44.3094 59.7129 45.7706 59.3476 46.9695L56.8046 56.0395Z" fill="#9347B2"/>
    <path d="M56.0153 56.871C55.8338 56.9954 55.6329 57.0726 55.4255 57.0977C55.2181 57.1227 55.0087 57.0951 54.8105 57.0166L49.7714 55.045C49.3848 54.8915 49.0629 54.5605 48.8745 54.1226C48.686 53.6846 48.646 53.1745 48.763 52.7013L51.2893 42.6315C51.3398 42.4303 51.4228 42.2434 51.5336 42.0818C51.6443 41.9201 51.7804 41.7869 51.9341 41.69C52.0877 41.5931 52.2558 41.5345 52.4283 41.5175C52.6008 41.5006 52.7744 41.5256 52.9389 41.5913L58.1609 43.6744C58.4097 43.7737 58.6397 43.9325 58.8371 44.1415C59.0346 44.3505 59.1955 44.6055 59.3105 44.8913C59.4255 45.1772 59.4922 45.4882 59.5066 45.8059C59.521 46.1236 59.4828 46.4415 59.3944 46.741L56.6932 55.8904C56.5719 56.3059 56.3312 56.6541 56.0153 56.871Z" fill="#3F3D56"/>
    <path d="M45.0877 40.8784C47.0811 40.8784 48.697 38.9152 48.697 36.4934C48.697 34.0716 47.0811 32.1083 45.0877 32.1083C43.0944 32.1083 41.4785 34.0716 41.4785 36.4934C41.4785 38.9152 43.0944 40.8784 45.0877 40.8784Z" fill="#FFB6B6"/>
    <path d="M32.883 40.9445C33.2142 41.7245 33.7573 42.3413 34.4202 42.6903C34.6847 42.8367 34.9628 42.9437 35.2485 43.0088C35.3292 42.6197 35.4585 42.248 35.6318 41.9064C35.5741 42.2914 35.5741 42.6859 35.6318 43.0709C36.0671 43.1142 36.505 43.0481 36.9183 42.8769C37.3242 42.7091 37.6924 42.4288 37.9936 42.0581C38.2948 41.6873 38.5207 41.2364 38.6535 40.7411C38.941 39.5787 38.6313 38.3373 38.6069 37.124C38.5818 35.9106 39.056 34.4594 40.0475 34.3092C40.8025 34.1947 40.7091 34.2836 41.2516 34.9317C40.4928 35.9559 42.3428 40.4922 43.3355 40.2917C43.8968 40.1784 44.3098 39.637 44.4208 39.6558C44.9892 41.3471 43.2794 43.7457 44.6355 44.5332L44.5349 44.3714C43.825 42.9466 45.9255 40.5403 45.2156 39.1155C45.0177 38.7169 44.8119 38.2497 44.9344 37.8088C45.0506 37.3896 45.6391 37.2569 45.7633 37.6384C45.5614 36.7639 46.1249 35.7375 46.8733 35.6482C47.5381 35.5685 47.4998 35.7988 48.1337 36.0088C48.2147 35.677 48.3314 35.3597 48.4808 35.0651C48.4303 35.4012 48.424 35.745 48.4624 36.0835C48.691 36.1167 48.9223 36.0572 49.1202 35.9143C49.7056 35.488 49.7231 34.3874 49.3209 33.7176C48.918 33.0476 48.2432 32.7168 47.5922 32.4665C47.5862 30.7938 43.8816 29.993 43.2002 31.5482C43.1301 30.289 41.9421 29.4407 40.9186 29.6546C39.8952 29.8685 39.0877 30.8656 38.5955 31.9769C38.1033 33.0873 37.859 34.3307 37.4987 35.5135C37.1384 36.6964 36.6233 37.8758 35.7606 38.5775C34.8979 39.2784 33.6159 39.3421 32.8956 38.4337C32.7313 38.8215 32.6446 39.251 32.6424 39.6872C32.6402 40.1235 32.7226 40.5542 32.883 40.9445Z" fill="#2F2E41"/>
    <path d="M36.5864 60.997C36.6611 60.9245 36.7421 60.8621 36.828 60.8111C38.2094 59.9758 42.5055 57.8075 45.8646 57.8964C52.3279 58.0676 60.5534 66.734 58.639 72.5537C57.1824 76.9821 49.9407 79.5015 44.6544 77.4865C37.2488 74.6635 34.3258 63.1869 36.5864 60.997Z" fill="#3F3D56"/>
    <path d="M9.75449 92.8999C7.64255 92.4158 5.77309 80.8559 9.92829 75.1626C11.3519 73.212 13.1277 72.3631 15.4899 71.573C29.0855 67.0254 39.4552 71.3594 40.8487 72.4176C42.2391 73.4734 44.6766 89.3812 41.5596 91.6329C39.8059 92.8998 36.3299 93.5333 34.6077 92.0552C32.0736 89.8803 36.3271 84.2389 34.4339 80.4416C32.2855 76.1324 20.9722 74.681 15.3003 78.9635C9.24893 83.5325 21.7309 95.6449 9.75449 92.8999Z" fill="#F2F2F2"/>
    <path d="M23.8747 73.2456H15.8063C13.8145 70.9264 12.3904 68.6913 13.5306 66.8361C13.5306 66.3028 13.705 65.7913 14.0153 65.4142C14.3257 65.0371 14.7467 64.8253 15.1856 64.8253H24.4953C24.9343 64.8253 25.3553 65.0371 25.6656 65.4142C25.976 65.7913 26.1504 66.3028 26.1504 66.8361C26.5845 68.95 25.809 71.0869 23.8747 73.2456Z" fill="#CCCCCC"/>
    <path d="M22.4257 62.2938C22.3491 62.2981 22.2733 62.2737 22.2086 62.2239C22.1438 62.1741 22.0933 62.1013 22.0637 62.0154C22.0341 61.9295 22.027 61.8346 22.0433 61.7436C22.0596 61.6527 22.0985 61.57 22.1548 61.5068L22.1804 61.3831C22.177 61.3732 22.1736 61.3633 22.1702 61.3534C22.0931 61.1321 21.9639 60.9434 21.7988 60.811C21.6337 60.6786 21.44 60.6085 21.2422 60.6094C21.0444 60.6102 20.8512 60.6821 20.6869 60.816C20.5226 60.9499 20.3946 61.1397 20.3188 61.3617C20.016 62.2478 19.6305 63.1354 19.5355 64.0723C19.4937 64.4864 19.5114 64.9062 19.5877 65.313C18.8764 63.4281 18.5071 61.3794 18.5047 59.3058C18.5046 58.7855 18.5284 58.2656 18.576 57.7485C18.6154 57.3245 18.67 56.9036 18.7398 56.4858C19.121 54.2184 19.9395 52.0932 21.128 50.2847C21.7032 49.9034 22.1684 49.317 22.4609 48.6045C22.5668 48.3484 22.6417 48.0751 22.6832 47.7929C22.6183 47.8032 22.4385 46.6026 22.4875 46.5289C22.3971 46.3622 22.2352 46.2793 22.1364 46.1166C21.6453 45.3075 20.9685 45.4488 20.6152 46.5483C19.8606 47.0111 19.8533 47.7785 20.3163 48.5167C20.6109 48.9863 20.6514 49.6217 20.9099 50.1244C20.8833 50.1658 20.8557 50.2059 20.8291 50.2472C20.3429 51.0067 19.9192 51.8223 19.564 52.6822C19.6504 51.7188 19.5473 50.7443 19.2632 49.8388C18.9753 48.9949 18.4356 48.2842 17.9604 47.5547C17.3895 46.6784 16.2189 47.0608 16.1184 48.1716C16.1174 48.1824 16.1164 48.1931 16.1155 48.2039C16.1861 48.2523 16.2552 48.3036 16.3228 48.3579C16.4078 48.4269 16.4736 48.5254 16.5116 48.6406C16.5497 48.7557 16.5583 48.8822 16.5362 49.0033C16.5141 49.1245 16.4624 49.2347 16.3878 49.3196C16.3133 49.4044 16.2194 49.46 16.1184 49.4789L16.1081 49.4808C16.1332 49.7899 16.1777 50.0962 16.2411 50.3971C15.6314 53.2617 16.9476 54.3051 18.8271 54.352C18.8685 54.3778 18.909 54.4037 18.9505 54.4282C18.5936 55.6569 18.3697 56.9368 18.2845 58.2357C18.2363 59.002 18.2392 59.7718 18.2931 60.5375L18.2899 60.5104C18.1537 59.6589 17.7798 58.8906 17.2314 58.3352C16.4169 57.5223 15.2661 57.2229 14.3874 56.5695C14.294 56.4966 14.1854 56.4577 14.0744 56.4574C13.9634 56.4571 13.8547 56.4953 13.761 56.5676C13.6673 56.6399 13.5926 56.7432 13.5457 56.8654C13.4987 56.9876 13.4816 57.1236 13.4961 57.2572C13.4973 57.2667 13.4985 57.2763 13.4997 57.2858C13.6307 57.3506 13.7583 57.4253 13.8816 57.5093C13.9522 57.5577 14.0213 57.6091 14.0889 57.6634C14.1738 57.7324 14.2397 57.8309 14.2777 57.946C14.3158 58.0612 14.3243 58.1876 14.3022 58.3088C14.2801 58.43 14.2284 58.5402 14.1539 58.6251C14.0794 58.7099 13.9855 58.7654 13.8845 58.7843L13.8742 58.7863C13.8667 58.7876 13.8603 58.7889 13.8529 58.7902C14.0767 59.4394 14.3909 60.0371 14.7816 60.5569C15.1628 63.0576 16.8001 63.2948 18.5515 62.5666H18.5526C18.7448 63.5812 19.0232 64.5687 19.3834 65.5133H22.3513C22.362 65.4733 22.3715 65.4319 22.3811 65.3918C22.1064 65.4128 21.8306 65.3929 21.5599 65.3324C21.7801 65.0041 22.0003 64.6733 22.2205 64.345C22.2254 64.3389 22.23 64.3324 22.2343 64.3256C22.346 64.1576 22.4588 63.9909 22.5705 63.8228C22.5764 63.3078 22.5277 62.7938 22.4257 62.2938Z" fill="#CCCCCC"/>
    <path d="M32.5486 72.7203C32.5978 72.8944 32.6912 73.0451 32.8153 73.1508C32.9394 73.2564 33.0879 73.3115 33.2394 73.3082L36.1993 73.2157C36.352 73.2121 36.4995 73.1485 36.62 73.0346C36.7404 72.9207 36.8273 72.7624 36.8676 72.5835L37.2864 67.1419C37.435 67.2236 37.5968 67.264 37.7599 67.2601C38.0461 67.2513 38.3178 67.1048 38.5151 66.8528C38.7123 66.6007 38.8191 66.2638 38.812 65.9161C38.8048 65.5684 38.6842 65.2383 38.4767 64.9986C38.2693 64.7589 37.992 64.6292 37.7058 64.6379C37.6406 64.6377 37.5755 64.6459 37.5118 64.6624C37.4424 64.5713 37.3582 64.4988 37.2644 64.4496C37.1706 64.4005 37.0694 64.3757 36.9672 64.3769L32.4142 64.5198C32.3764 64.5215 32.3388 64.5272 32.3019 64.5367C32.202 64.5593 32.1073 64.6077 32.0241 64.6785C31.941 64.7493 31.8712 64.8409 31.8196 64.9472C31.7681 65.0535 31.7358 65.172 31.7251 65.2947C31.7143 65.4174 31.7254 65.5415 31.7574 65.6586L32.5486 72.7203ZM37.3723 66.7724L37.6704 65.4756C37.7043 65.3258 37.7051 65.1678 37.6727 65.0175C37.6871 65.0175 37.6999 65.0092 37.7143 65.0091C37.9187 65.004 38.1163 65.0976 38.264 65.2693C38.4116 65.441 38.4972 65.6768 38.502 65.925C38.5068 66.1733 38.4304 66.4137 38.2895 66.5936C38.1486 66.7735 37.9548 66.8782 37.7505 66.8847C37.6184 66.8898 37.4876 66.8509 37.3723 66.7724Z" fill="#CCCCCC"/>
    <path d="M32.3019 64.5367C32.3989 65.2106 33.4895 65.6843 34.8008 65.602C36.0067 65.5345 36.9926 65.02 37.1733 64.4103C37.1064 64.3863 37.0369 64.375 36.9672 64.3769L32.4142 64.5198C32.3764 64.5215 32.3388 64.5272 32.3019 64.5367Z" fill="white"/>
    <path d="M54.0676 50.1126C53.7965 50.1247 53.54 50.2647 53.3526 50.503C53.1652 50.7413 53.0618 51.0591 53.0642 51.3886C53.0656 51.4556 53.0716 51.5223 53.082 51.5881L49.9536 53.8321L50.3322 56.1614L54.3442 52.5244C54.5654 52.4507 54.7603 52.2902 54.8985 52.0678C55.0366 51.8454 55.1103 51.5736 55.108 51.295C55.1054 51.1365 55.0772 50.9801 55.0249 50.8348C54.9726 50.6896 54.8973 50.5582 54.8032 50.4483C54.7091 50.3384 54.5981 50.2521 54.4766 50.1943C54.3551 50.1366 54.2253 50.1084 54.0949 50.1115C54.0858 50.1118 54.0767 50.1121 54.0676 50.1126Z" fill="#FFB6B6"/>
    <path d="M51.5048 55.4622C51.4211 55.326 51.3852 55.269 51.3662 55.2846C51.3172 55.3205 51.3643 55.8018 51.0198 56.6405C50.5347 57.8188 45.449 59.6236 45.449 59.6236L42.0686 52.1102L41.1193 47.2044C41.0861 47.0334 41.0699 46.8581 41.0712 46.6823C41.9177 45.9587 42.8165 45.33 43.7567 44.8043C44.1324 45.0632 44.4188 45.4777 44.5636 45.9722L47.216 55.0093C47.216 55.0093 48.5505 53.8499 49.0346 54.0627C49.5179 54.2769 49.6552 53.9766 49.3393 53.0154C49.0234 52.0542 49.4976 53.0437 50.0494 53.1065C50.6023 53.1704 50.0494 53.1065 50.3106 52.6987C50.5717 52.2908 52.2603 52.0613 52.2603 52.0613L52.2961 52.1523L52.9505 53.7877L53.1378 54.2575C53.1378 54.2575 52.4441 55.172 52.2767 55.3542C52.1086 55.5378 52.0566 55.5251 52.139 55.7342C52.2202 55.9424 51.7955 55.9329 51.5048 55.4622Z" fill="#9347B2"/>
</svg>
