<svg width="270" height="255" viewBox="0 0 270 255" fill="none" xmlns="http://www.w3.org/2000/svg">
    <g clip-path="url(#clip0_520_518)">
        <rect width="270" height="255" rx="20" fill="url(#paint0_linear_520_518)"/>
        <path opacity="0.3" d="M105.164 28.3756C99.7678 32.3933 92.6666 31.5469 86.1785 30.9588C79.688 30.3735 72.2827 30.5906 67.8834 35.8835C64.3838 40.0936 63.2572 47.0354 58.4242 49.0827C53.2173 51.2867 47.4995 46.068 42.0358 47.2964C38.9725 47.9862 36.5672 50.6024 34.7552 53.411C32.9431 56.2196 31.5223 59.3497 29.4012 61.8807C25.6076 66.4096 19.805 68.5696 14.2192 68.2426C8.63596 67.9156 3.29198 65.2774 -1.12229 61.4932C-11.8426 52.3062 -17.0097 35.3641 -12.1841 21.3734C-9.63177 13.9699 -4.62181 7.79765 1.26554 3.25775C7.1529 -1.28215 13.9027 -4.29135 20.7671 -6.63275C34.8972 -11.453 49.7826 -13.5718 64.5608 -12.8682C72.8859 -12.4725 81.2707 -11.1589 88.9926 -7.70177C92.1631 -6.28374 95.199 -4.49196 97.9981 -2.3182C100.805 -0.138934 103.105 2.46629 105.466 5.18418C106.976 6.92374 108.93 8.46819 110.02 10.5952C111.243 12.9806 111.136 16.1959 110.693 18.8011C110.039 22.6073 108.098 26.1908 105.164 28.3756Z" fill="#5353C9" fill-opacity="0.7"/>
        <path opacity="0.3" d="M-6.31668 165.548C-2.15227 153.798 3.30616 142.508 9.95152 131.995C16.0463 122.361 23.258 113.185 32.3109 106.247C40.7787 99.7523 50.7311 95.532 61.4177 95.3284C63.3463 95.2858 65.2937 95.3875 67.2123 95.6183C66.7892 93.8795 66.4985 92.1186 66.3313 90.3645C64.2804 67.8129 83.9143 50.8434 103.563 45.3745C128.416 38.4571 154.059 45.4429 179.109 47.0208C201.15 48.4079 223.374 44.4182 243.323 34.6623C253.187 29.8398 262.392 23.6405 270.484 16.145C279.565 7.73749 286.907 -2.31219 293.204 -12.988C306.193 -34.9812 315.171 -59.4472 330.712 -79.8515C344.018 -97.3208 362.948 -111.566 385.415 -112.438C390.403 -112.625 395.255 -112.025 400.063 -110.694C401.647 -110.26 400.76 -107.827 399.188 -108.268C378.744 -113.939 357.388 -104.721 342.474 -90.5643C324.936 -73.9142 314.914 -51.2119 304.109 -29.8934C293.893 -9.75118 282.249 9.58064 264.303 23.5501C248.762 35.6381 230.219 43.528 210.983 47.0213C200.976 48.8423 190.79 49.3948 180.644 48.8539C168.12 48.1822 155.734 46.0969 143.259 44.9196C121.035 42.8263 96.0806 44.0967 79.3844 61.1814C71.9619 68.781 67.0982 79.1841 68.0927 90.0461C68.2706 92.0055 68.6286 93.9579 69.1411 95.8842C76.5119 97.1163 83.5371 100.377 88.7796 105.917C91.0999 108.369 94.3372 113.173 91.5384 116.451C88.5916 119.906 82.7973 116.522 79.913 114.615C73.9388 110.653 69.7804 104.338 67.697 97.4296C59.5664 96.3204 51.1203 97.76 43.6827 101.25C33.765 105.907 25.5703 113.636 18.8051 122.239C11.6089 131.399 5.66311 141.643 0.790962 152.245C-9.1282 173.853 -14.4849 197.596 -14.8548 221.429C-14.9509 227.588 -14.6985 233.771 -14.2034 239.914C-14.1615 240.395 -14.883 240.53 -14.944 240.043C-17.9676 215.048 -14.7053 189.211 -6.31668 165.548ZM82.565 114.088C84.3956 115.089 88.1001 117.189 90.0018 115.447C92.5242 113.145 89.0393 108.742 87.4663 107.068C83.896 103.255 79.2932 100.564 74.3814 98.9563C72.8493 98.4535 71.2912 98.0701 69.719 97.7674C71.9548 104.553 76.2922 110.659 82.565 114.088Z" fill="#333333"/>
        <path opacity="0.3" d="M198.84 181.069C200.1 184.665 201.65 188.17 203.44 191.533C207.1 198.421 211.7 204.74 216.86 210.541C222.39 216.759 228.52 222.387 234.91 227.68C240.69 232.465 246.81 236.813 252.48 241.72C256.4 245.114 260.05 248.862 262.77 253.241C257.78 241.974 249.71 232.557 240.8 224.124C230.2 214.097 218.361 205.228 209.241 193.687C206.651 190.405 204.31 186.931 202.26 183.274C200.22 179.636 198.22 175.827 196.63 171.946C196.93 175.055 197.8 178.113 198.84 181.069ZM247.4 218.628C242.95 212.705 237.77 207.351 231.98 202.769C225.23 197.436 217.79 193.067 211.04 187.733C206.94 184.493 203.03 180.866 199.86 176.68C200.66 178.255 201.46 179.819 202.32 181.353C204.32 184.899 206.521 188.333 208.991 191.553C213.481 197.415 218.67 202.688 224.06 207.707C234.63 217.541 246.07 226.583 254.85 238.215C258.05 242.462 260.87 247.034 262.95 251.931C259.98 239.912 254.86 228.544 247.4 218.628ZM210.95 116.557C213.74 129.094 217.95 141.295 223.44 152.877C234.52 176.243 252.19 196.054 260.99 220.589C262.03 223.494 262.93 226.461 263.68 229.468C263.21 226.095 262.68 222.732 262.05 219.37C259.84 207.524 256.91 195.861 253.23 184.391C245.75 161.035 235.72 138.623 224.86 116.709C221.78 110.492 218.63 104.315 215.45 98.1584C212.64 92.713 209.55 87.3387 206.97 81.7612C207.21 93.4952 208.39 105.057 210.95 116.557ZM266.62 240.725C267.29 233.816 267.72 226.888 267.73 219.929C267.75 206.366 266.16 192.915 262.69 179.819C259.23 166.775 254.61 153.933 249.64 141.407C244.95 129.581 239.54 117.979 232.54 107.363C225.74 97.051 217.37 87.7349 207.33 80.6132C210.3 85.571 212.841 90.8335 215.491 95.964C218.311 101.399 221.11 106.855 223.85 112.331C229.41 123.415 234.781 134.61 239.74 145.999C249.42 168.207 257.69 191.32 262.62 215.133C264.37 223.525 265.81 232.11 266.62 240.725Z" fill="#333333"/>
        <path d="M23 28.12C22.48 28.12 21.992 28.036 21.536 27.868C21.08 27.692 20.688 27.432 20.36 27.088L20.768 26.344C21.128 26.68 21.488 26.92 21.848 27.064C22.208 27.208 22.576 27.28 22.952 27.28C23.384 27.28 23.736 27.2 24.008 27.04C24.28 26.872 24.416 26.628 24.416 26.308C24.416 26.076 24.344 25.904 24.2 25.792C24.064 25.68 23.868 25.588 23.612 25.516C23.356 25.436 23.052 25.348 22.7 25.252C22.052 25.068 21.556 24.852 21.212 24.604C20.876 24.348 20.708 23.976 20.708 23.488C20.708 22.896 20.932 22.44 21.38 22.12C21.836 21.792 22.416 21.628 23.12 21.628C24.064 21.628 24.808 21.912 25.352 22.48L24.872 23.212C24.384 22.708 23.78 22.456 23.06 22.456C22.844 22.456 22.632 22.484 22.424 22.54C22.216 22.588 22.044 22.68 21.908 22.816C21.772 22.944 21.704 23.128 21.704 23.368C21.704 23.664 21.824 23.876 22.064 24.004C22.304 24.132 22.656 24.264 23.12 24.4C23.592 24.536 24 24.672 24.344 24.808C24.696 24.944 24.968 25.12 25.16 25.336C25.352 25.552 25.448 25.852 25.448 26.236C25.448 26.828 25.224 27.292 24.776 27.628C24.328 27.956 23.736 28.12 23 28.12ZM29.9514 27.688C29.8234 27.744 29.6194 27.824 29.3394 27.928C29.0674 28.032 28.7634 28.084 28.4274 28.084C28.0434 28.084 27.7114 27.98 27.4314 27.772C27.1514 27.556 27.0114 27.224 27.0114 26.776V22.564H26.1594V21.736H27.0114V19.648H28.0674V21.736H29.4714V22.564H28.0674V26.452C28.0834 26.676 28.1594 26.844 28.2954 26.956C28.4314 27.06 28.5914 27.112 28.7754 27.112C28.9834 27.112 29.1754 27.076 29.3514 27.004C29.5274 26.932 29.6434 26.88 29.6994 26.848L29.9514 27.688ZM33.5841 28.12C32.9601 28.12 32.4081 27.972 31.9281 27.676C31.4561 27.372 31.0881 26.976 30.8241 26.488C30.5601 25.992 30.4281 25.456 30.4281 24.88C30.4281 24.296 30.5601 23.76 30.8241 23.272C31.0961 22.776 31.4681 22.38 31.9401 22.084C32.4201 21.78 32.9681 21.628 33.5841 21.628C34.2081 21.628 34.7561 21.78 35.2281 22.084C35.7081 22.38 36.0801 22.776 36.3441 23.272C36.6161 23.76 36.7521 24.296 36.7521 24.88C36.7521 25.456 36.6161 25.992 36.3441 26.488C36.0801 26.976 35.7121 27.372 35.2401 27.676C34.7681 27.972 34.2161 28.12 33.5841 28.12ZM31.5081 24.892C31.5081 25.324 31.6001 25.716 31.7841 26.068C31.9761 26.42 32.2281 26.7 32.5401 26.908C32.8521 27.108 33.2001 27.208 33.5841 27.208C33.9681 27.208 34.3161 27.104 34.6281 26.896C34.9481 26.688 35.2001 26.408 35.3841 26.056C35.5761 25.696 35.6721 25.3 35.6721 24.868C35.6721 24.436 35.5761 24.044 35.3841 23.692C35.2001 23.34 34.9481 23.06 34.6281 22.852C34.3161 22.644 33.9681 22.54 33.5841 22.54C33.2001 22.54 32.8521 22.648 32.5401 22.864C32.2281 23.072 31.9761 23.352 31.7841 23.704C31.6001 24.056 31.5081 24.452 31.5081 24.892ZM41.3437 22.66C40.8157 22.668 40.3477 22.804 39.9397 23.068C39.5397 23.324 39.2557 23.68 39.0877 24.136V28H38.0317V21.736H39.0157V23.188C39.2317 22.756 39.5157 22.408 39.8677 22.144C40.2277 21.872 40.6037 21.72 40.9957 21.688C41.0757 21.688 41.1437 21.688 41.1997 21.688C41.2557 21.688 41.3037 21.692 41.3437 21.7V22.66ZM42.6791 29.704C42.7831 29.712 42.8871 29.72 42.9911 29.728C43.0951 29.744 43.1751 29.752 43.2311 29.752C43.3591 29.752 43.4711 29.708 43.5671 29.62C43.6631 29.532 43.7671 29.36 43.8791 29.104C43.9991 28.856 44.1511 28.488 44.3351 28L41.6831 21.736H42.7991L44.9111 26.932L46.8191 21.736H47.8631L44.8151 29.644C44.7111 29.924 44.5231 30.168 44.2511 30.376C43.9871 30.592 43.6311 30.7 43.1831 30.7C43.1111 30.7 43.0351 30.696 42.9551 30.688C42.8831 30.68 42.7911 30.664 42.6791 30.64V29.704Z" fill="#FFEACC"/>
        <rect x="10.5" y="10.5" width="48" height="27" rx="13.5" stroke="#FFEACC"/>
    </g>
    <defs>
        <linearGradient id="paint0_linear_520_518" x1="270" y1="0" x2="-14.6082" y2="206.057" gradientUnits="userSpaceOnUse">
            <stop stop-color="#7474DD"/>
            <stop offset="1" stop-color="#FFCDEC"/>
        </linearGradient>
        <clipPath id="clip0_520_518">
            <rect width="270" height="255" rx="20" fill="white"/>
        </clipPath>
    </defs>
</svg>
