<svg width="270" height="255" viewBox="0 0 270 255" fill="none" xmlns="http://www.w3.org/2000/svg">
    <g clip-path="url(#clip0_517_691)">
        <rect width="270" height="255" rx="20" fill="url(#paint0_linear_517_691)"/>
        <path opacity="0.3" d="M-26.249 -12.4761C-44.8724 1.35452 -57.6125 22.4668 -38.5883 43.6515C-30.8583 52.2603 -19.9863 57.4241 -8.84238 60.2526C12.6439 65.7065 36.0627 62.9288 55.7311 52.6012C69.1797 45.5372 81.3472 34.2667 85.477 19.4932C91.8327 -3.25086 77.5824 -23.5943 56.0102 -29.933C37.5229 -35.3652 14.8484 -31.4851 -3.05926 -25.0085C-10.646 -22.2598 -18.9056 -17.9373 -26.249 -12.4761Z" fill="#F7F5FF"/>
        <path opacity="0.3" d="M46.0655 98.3126C63.402 90.8564 71.725 75.522 80.5501 62.1038C85.5613 54.482 90.9732 46.9863 97.5679 40.1964C104.206 33.3592 112.09 27.6418 120.91 22.7406C137.633 13.4469 156.582 6.58605 170.824 -5.44807C177.394 -11.0038 182.739 -17.6162 185.278 -25.1159C187.953 -33.0098 187.489 -41.578 184.042 -49.2669C183.202 -51.1359 182.121 -52.9458 180.924 -54.6767C180.624 -55.1105 179.847 -54.6965 180.127 -54.2627C184.902 -46.9011 186.77 -38.2659 185.307 -30.0171C183.922 -22.198 179.446 -15.0769 173.286 -9.05199C160.439 3.50654 142.109 10.6789 125.477 19.255C116.734 23.7658 108.44 28.805 101.445 35.0626C94.4974 41.2728 88.7862 48.3348 83.6785 55.6136C78.8314 62.5179 74.6506 69.7178 69.7311 76.5905C65.0289 83.1556 59.5301 89.5473 52.0857 94.2316C35.9418 104.381 14.497 103.588 -4.66915 101.779C-7.02991 101.554 -9.39066 101.333 -11.7466 101.096C-12.0169 101.069 -12.1087 101.404 -11.8335 101.439C7.13468 103.809 28.3816 105.915 46.0655 98.3126Z" fill="#333333"/>
        <path opacity="0.3" d="M241.086 15.8405C242.395 17.9096 243.643 20.061 244.813 22.2212C252.623 36.5964 257.257 52.7049 258.03 69.1167C258.254 73.8003 258.274 78.5032 258.863 83.1573C259.453 87.831 261.012 92.1092 262.637 96.491C264.086 100.401 265.327 104.457 265.072 108.68C264.873 112.035 263.846 115.242 262.489 118.288C259.636 124.681 255.26 130.324 252.873 136.946C251.551 140.631 251.251 144.232 251.568 148.119C251.916 152.364 251.986 156.415 250.737 160.524C249.602 164.274 247.651 167.785 245.04 170.68C241.993 174.06 238.02 176.265 234.222 178.628C230.083 181.205 226.53 184.099 224.29 188.567C222.351 192.437 221.111 196.656 218.444 200.112C212.768 207.481 203.149 210.691 194.778 213.669C185.55 216.958 176.069 219.51 166.434 221.25C165.755 221.371 165.073 221.484 164.39 221.597C164.021 221.798 163.653 221.998 163.279 222.192C162.308 222.841 161.296 223.412 160.231 223.914C160.071 223.988 159.919 223.993 159.777 223.982C155.176 226.222 150.441 228.171 145.574 229.767C143.644 230.407 141.702 230.929 139.722 231.36C138.597 231.607 138.147 229.96 139.252 229.6C145.958 227.466 152.553 225.175 158.931 222.217C158.925 222.126 158.96 222.051 159.071 222.031C159.228 222.001 159.385 221.971 159.542 221.941C160.481 221.501 161.407 221.039 162.335 220.565C162.587 220.441 162.837 220.298 163.092 220.162C167.604 216.646 170.547 211.254 172.149 205.736C174.346 198.168 174.04 190.177 173.793 182.377C173.54 174.551 173.51 166.799 175.143 159.107C176.691 151.787 179.442 144.714 183.254 138.299C187.21 131.641 192.333 125.823 196.7 119.452C198.865 116.294 200.845 112.975 202.326 109.427C203.84 105.815 204.789 101.967 205.391 98.0938C205.626 96.5636 205.786 94.9982 205.906 93.4176C205.896 93.4028 205.887 93.388 205.882 93.3806C205.755 93.1808 205.815 92.9835 205.949 92.8533C206.798 80.1531 204.808 66.3907 213.067 55.8724C218.06 49.5095 225.193 45.4983 231.201 40.2738C236.681 35.5021 241.407 29.1577 241.07 21.4599C240.994 19.7349 240.592 18.0666 239.874 16.5018C239.516 15.7292 240.608 15.0736 241.086 15.8405ZM249.378 45.9268C250.408 45.0283 251.526 44.2508 252.641 43.4537C250.575 36.7576 247.832 30.2652 244.48 24.1316C245.396 32.2357 245.962 40.3914 246.206 48.56C247.333 47.7973 248.377 46.8061 249.378 45.9268ZM258.3 85.3238C257.826 82.3586 257.598 79.3574 257.457 76.3623C257.242 71.7253 257.135 67.08 256.613 62.4659C256.083 57.7416 255.22 53.0472 254.056 48.4465C253.683 46.9694 253.262 45.5137 252.828 44.0553C251.833 44.8784 250.835 45.7138 249.766 46.4381C248.588 47.2344 247.28 48.0216 246.219 49.0028C246.411 55.8403 246.388 62.6824 246.105 69.5063C245.744 78.4298 244.945 87.3475 243.666 96.1929C244.607 95.6258 245.496 94.8624 246.381 94.2065C250.366 91.2588 254.249 88.1997 258.292 85.3286C258.288 85.3212 258.3 85.3238 258.3 85.3238ZM258.73 122.547C260.372 119.639 261.931 116.649 262.886 113.427C264.002 109.678 264.064 105.898 263.153 102.086C262.145 97.8759 260.348 93.9223 259.233 89.7405C258.923 88.5894 258.679 87.427 258.461 86.2577C253.554 89.917 248.48 93.3295 243.55 96.9519C242.435 104.481 240.978 111.962 239.092 119.337C237.609 125.155 235.865 130.903 233.857 136.562C241 132.208 248.53 128.608 256.558 126.277C257.292 125.027 258.023 123.789 258.73 122.547ZM247.262 164.838C249.196 161.317 250.291 157.309 250.352 153.268C250.418 149.106 249.555 145.043 250.279 140.89C251.176 135.826 253.639 131.285 256.206 126.876C248.362 130.032 240.616 133.585 233.355 137.964C229.835 147.642 225.52 157.015 220.325 165.884C218.101 169.679 215.732 173.392 213.214 177.002C215.596 176.537 217.96 175.832 220.299 175.218C223.207 174.459 226.111 173.661 228.999 172.822C234.543 171.201 240.041 169.442 245.507 167.568C246.154 166.701 246.739 165.802 247.262 164.838ZM220.956 192.746C222.604 188.762 224.19 184.841 227.328 181.799C230.654 178.581 234.868 176.543 238.662 173.994C241.008 172.419 243.091 170.576 244.838 168.417C239.646 170.185 234.419 171.85 229.16 173.399C226.337 174.227 223.517 175.043 220.681 175.817C217.962 176.566 215.162 177.138 212.486 178.017C206.157 186.94 198.936 195.21 190.899 202.588C199.148 202.275 207.405 201.81 215.656 201.401C217.978 198.927 219.61 196.005 220.956 192.746ZM188.333 204.907C181.494 210.888 174.074 216.202 166.196 220.65C173.267 219.138 180.278 217.287 187.161 215.089C191.757 213.619 196.317 211.995 200.799 210.2C205.155 208.468 209.538 206.519 213.268 203.592C213.936 203.068 214.543 202.511 215.124 201.929C206.737 202.417 198.325 202.848 189.939 203.451C189.403 203.941 188.879 204.432 188.333 204.907ZM175.633 178.499C175.853 186.484 176.519 194.584 174.96 202.489C173.946 207.663 171.951 212.904 168.717 217.111C173.737 214.165 178.555 210.869 183.126 207.252C184.776 205.946 186.385 204.593 187.968 203.215C186.076 196.792 183.779 190.594 181.268 184.401C180.03 181.34 178.78 178.277 177.632 175.178C176.99 173.457 176.306 171.702 175.727 169.919C175.569 172.754 175.551 175.612 175.633 178.499ZM188.04 134.257C183.621 140.61 180.19 147.541 178.086 155.028C176.947 159.065 176.277 163.14 175.919 167.251C176.784 169.728 177.512 172.263 178.423 174.731C179.594 177.898 180.855 181.028 182.116 184.158C184.541 190.167 187.118 196.254 188.689 202.562C197.136 195.112 204.692 186.654 211.272 177.46C206.058 161.22 197.346 146.419 190.461 130.899C189.642 132.016 188.823 133.132 188.04 134.257ZM201.533 115.012C198.562 120.328 194.784 125.093 191.154 129.96C197.705 145.668 206.157 160.482 211.918 176.542C213.456 174.364 214.946 172.144 216.377 169.879C222.64 159.992 227.748 149.415 231.813 138.432C231.772 138.385 231.735 138.326 231.716 138.265C230.299 134.208 227.971 130.541 225.839 126.84C223.7 123.111 221.49 119.419 219.288 115.722C215.36 109.106 211.49 102.42 207.433 95.8784C206.627 102.595 204.856 109.064 201.533 115.012ZM212.298 60.149C210.497 63.2773 209.478 66.773 208.899 70.3259C207.712 77.6611 208.323 85.1572 207.764 92.5521C207.711 93.2166 207.643 93.871 207.578 94.5329C211.657 101.659 216.001 108.652 220.171 115.728C222.389 119.499 224.586 123.285 226.806 127.043C228.758 130.349 230.829 133.629 232.257 137.215C233.811 132.937 235.209 128.593 236.454 124.203C239.024 115.159 240.93 105.933 242.305 96.637C239.876 93.6873 237.525 90.6654 235.089 87.7205L227.298 78.322C222.269 72.2518 217.27 66.1623 212.409 59.95C212.389 60.0157 212.338 60.0811 212.298 60.149ZM213.009 59.0091C217.817 66.2747 223.614 72.8687 229.084 79.6149L237.327 89.7873C238.696 91.4806 240.102 93.1499 241.493 94.8288C241.799 95.1948 242.102 95.573 242.422 95.9294C243.431 88.9634 244.147 81.9594 244.568 74.9295C245.092 66.1817 245.194 57.4186 244.967 48.6609C241.868 45.2598 239.096 41.5279 235.928 38.1821C231.359 43.1322 225.497 46.7373 220.363 51.0612C217.6 53.3941 214.987 55.9639 213.009 59.0091ZM238.876 34.4992C238.112 35.6214 237.27 36.6691 236.388 37.6698C239.067 41.1901 242.154 44.3783 244.937 47.8193C244.716 40.1401 244.254 32.4724 243.58 24.8288C243.495 23.918 243.423 23.0097 243.346 22.0941C243.087 21.6554 242.823 21.2093 242.557 20.7754C243.142 25.5371 241.586 30.51 238.876 34.4992Z" fill="#333333"/>
        <path d="M22.652 28L20.192 21.736H21.296L23.264 26.992L25.232 21.736H26.264L23.804 28H22.652ZM27.3208 28V21.736H28.3768V28H27.3208ZM27.3208 20.56V19.24H28.3768V20.56H27.3208ZM29.6784 24.88C29.6784 24.288 29.7984 23.748 30.0384 23.26C30.2864 22.764 30.6224 22.368 31.0464 22.072C31.4784 21.776 31.9704 21.628 32.5224 21.628C33.0264 21.628 33.4784 21.76 33.8784 22.024C34.2784 22.288 34.5904 22.608 34.8144 22.984V19.24H35.8704V26.8C35.8704 26.928 35.8944 27.024 35.9424 27.088C35.9984 27.144 36.0864 27.176 36.2064 27.184V28C36.0064 28.032 35.8504 28.048 35.7384 28.048C35.5304 28.048 35.3464 27.976 35.1864 27.832C35.0344 27.688 34.9584 27.528 34.9584 27.352V26.824C34.7104 27.224 34.3784 27.54 33.9624 27.772C33.5464 28.004 33.1144 28.12 32.6664 28.12C32.2344 28.12 31.8344 28.036 31.4664 27.868C31.1064 27.692 30.7904 27.452 30.5184 27.148C30.2544 26.844 30.0464 26.5 29.8944 26.116C29.7504 25.724 29.6784 25.312 29.6784 24.88ZM34.8144 25.804V24.004C34.7184 23.732 34.5624 23.488 34.3464 23.272C34.1304 23.048 33.8864 22.872 33.6144 22.744C33.3504 22.608 33.0864 22.54 32.8224 22.54C32.5104 22.54 32.2264 22.608 31.9704 22.744C31.7224 22.872 31.5064 23.048 31.3224 23.272C31.1464 23.488 31.0104 23.736 30.9144 24.016C30.8184 24.296 30.7704 24.588 30.7704 24.892C30.7704 25.204 30.8224 25.5 30.9264 25.78C31.0384 26.06 31.1904 26.308 31.3824 26.524C31.5824 26.74 31.8104 26.908 32.0664 27.028C32.3304 27.148 32.6144 27.208 32.9184 27.208C33.1104 27.208 33.3064 27.172 33.5064 27.1C33.7144 27.028 33.9104 26.928 34.0944 26.8C34.2784 26.672 34.4344 26.524 34.5624 26.356C34.6904 26.18 34.7744 25.996 34.8144 25.804ZM40.4053 28.12C39.9333 28.12 39.5013 28.036 39.1093 27.868C38.7253 27.692 38.3893 27.456 38.1013 27.16C37.8213 26.856 37.6013 26.508 37.4413 26.116C37.2893 25.724 37.2133 25.308 37.2133 24.868C37.2133 24.276 37.3493 23.736 37.6213 23.248C37.8933 22.76 38.2693 22.368 38.7493 22.072C39.2373 21.776 39.7933 21.628 40.4173 21.628C41.0493 21.628 41.5973 21.78 42.0613 22.084C42.5333 22.38 42.8973 22.772 43.1533 23.26C43.4173 23.74 43.5493 24.26 43.5493 24.82C43.5493 24.9 43.5453 24.98 43.5373 25.06C43.5373 25.132 43.5333 25.188 43.5253 25.228H38.3293C38.3613 25.636 38.4733 26 38.6653 26.32C38.8653 26.632 39.1213 26.88 39.4333 27.064C39.7453 27.24 40.0813 27.328 40.4413 27.328C40.8253 27.328 41.1853 27.232 41.5213 27.04C41.8653 26.848 42.1013 26.596 42.2293 26.284L43.1413 26.536C43.0053 26.84 42.8013 27.112 42.5293 27.352C42.2653 27.592 41.9493 27.78 41.5813 27.916C41.2213 28.052 40.8293 28.12 40.4053 28.12ZM38.2933 24.496H42.5653C42.5333 24.088 42.4173 23.728 42.2173 23.416C42.0173 23.104 41.7613 22.86 41.4493 22.684C41.1373 22.508 40.7933 22.42 40.4173 22.42C40.0493 22.42 39.7093 22.508 39.3973 22.684C39.0853 22.86 38.8293 23.104 38.6293 23.416C38.4373 23.728 38.3253 24.088 38.2933 24.496ZM47.4591 28.12C46.9871 28.12 46.5591 28.036 46.1751 27.868C45.7911 27.692 45.4591 27.456 45.1791 27.16C44.8991 26.856 44.6831 26.508 44.5311 26.116C44.3791 25.724 44.3031 25.312 44.3031 24.88C44.3031 24.44 44.3791 24.024 44.5311 23.632C44.6831 23.24 44.8991 22.896 45.1791 22.6C45.4591 22.296 45.7911 22.06 46.1751 21.892C46.5671 21.716 46.9951 21.628 47.4591 21.628C47.9311 21.628 48.3591 21.716 48.7431 21.892C49.1271 22.06 49.4591 22.296 49.7391 22.6C50.0271 22.896 50.2471 23.24 50.3991 23.632C50.5511 24.024 50.6271 24.44 50.6271 24.88C50.6271 25.312 50.5511 25.724 50.3991 26.116C50.2471 26.508 50.0311 26.856 49.7511 27.16C49.4711 27.456 49.1351 27.692 48.7431 27.868C48.3591 28.036 47.9311 28.12 47.4591 28.12ZM45.3831 24.892C45.3831 25.324 45.4751 25.716 45.6591 26.068C45.8511 26.42 46.1031 26.7 46.4151 26.908C46.7271 27.108 47.0751 27.208 47.4591 27.208C47.8431 27.208 48.1911 27.104 48.5031 26.896C48.8231 26.688 49.0751 26.408 49.2591 26.056C49.4511 25.696 49.5471 25.3 49.5471 24.868C49.5471 24.436 49.4511 24.044 49.2591 23.692C49.0751 23.34 48.8231 23.06 48.5031 22.852C48.1911 22.644 47.8431 22.54 47.4591 22.54C47.0751 22.54 46.7271 22.648 46.4151 22.864C46.1031 23.072 45.8511 23.352 45.6591 23.704C45.4751 24.056 45.3831 24.452 45.3831 24.892Z" fill="#C484B0"/>
        <rect x="10.5" y="10.5" width="51" height="27" rx="13.5" stroke="#C484B0"/>
        <path opacity="0.7" d="M166.5 114.134C167.167 114.519 167.167 115.481 166.5 115.866L109.5 148.775C108.833 149.16 108 148.679 108 147.909L108 82.091C108 81.3212 108.833 80.8401 109.5 81.225L166.5 114.134Z" fill="#333333"/>
    </g>
    <defs>
        <linearGradient id="paint0_linear_517_691" x1="12" y1="255" x2="284.956" y2="46.247" gradientUnits="userSpaceOnUse">
            <stop stop-color="#CCD0FF"/>
            <stop offset="1" stop-color="#FFCDEC"/>
        </linearGradient>
        <clipPath id="clip0_517_691">
            <rect width="270" height="255" rx="20" fill="white"/>
        </clipPath>
        <clipPath id="clip1_517_691">
            <rect width="20" height="20" fill="white" transform="translate(201 205)"/>
        </clipPath>
    </defs>
</svg>
