<svg width="12" height="16" viewBox="0 0 12 16" fill="none" xmlns="http://www.w3.org/2000/svg">
<path d="M10.4351 7.7925C10.3576 8.83459 9.71582 9.56619 8.97482 9.87625C8.18912 10.2049 7.39496 10.0236 6.99846 9.425C6.34929 8.44481 6.79536 7.76263 7.22672 7.10288C7.71583 6.35478 8.27025 5.50684 7.73849 3.85791C7.31871 2.55613 6.49659 1.46322 5.29492 0.609531C4.92032 0.343437 4.56505 0.143312 4.27673 0C4.67942 0.907562 5.20309 2.59641 4.65608 4.46228C4.30915 5.64581 3.39224 6.54269 2.50551 7.41003C1.33761 8.55247 0.129883 9.73378 0.129883 11.6213C0.129883 13.0855 0.680872 14.2519 1.76749 15.0882C2.59035 15.7214 3.43001 15.968 3.43838 15.97H5.44197L5.40003 15.9692C5.3923 15.9637 4.62899 15.4058 4.61584 14.766C4.60971 14.467 4.77921 14.1802 5.1196 13.9135C5.63089 13.5129 5.9119 13.0816 5.97875 12.5949C6.01964 12.2973 5.97831 11.9826 5.85268 11.643C6.70071 11.9723 7.57792 12.6913 7.87518 13.5838C8.14215 14.3853 7.89519 15.2097 7.1617 15.97H9.35443C10.7907 14.9281 11.5993 13.6796 11.7578 12.2591C11.9599 10.4479 11.0656 8.742 10.4351 7.7925Z" fill="black"/>
</svg>
