<svg width="32" height="32" viewBox="0 0 32 32" fill="none" xmlns="http://www.w3.org/2000/svg">
<g clip-path="url(#clip0_54_5)">
<path fill-rule="evenodd" clip-rule="evenodd" d="M16 32C24.8366 32 32 24.8366 32 16C32 7.16344 24.8366 -9.53674e-07 16 -9.53674e-07C7.16344 -9.53674e-07 0 7.16344 0 16C0 24.8366 7.16344 32 16 32ZM9.75736 10.9833C9.10649 11.6341 9.10649 12.6894 9.75736 13.3403L12.8215 16.4044C13.4724 17.0553 14.5276 17.0553 15.1785 16.4044L18.2426 13.3403C18.8935 12.6894 18.8935 11.6341 18.2426 10.9833L15.1785 7.91914C14.5276 7.26827 13.4724 7.26827 12.8215 7.91914L9.75736 10.9833ZM18.781 18.4379C18.2603 17.9172 18.2603 17.073 18.781 16.5523L20.1952 15.1381C20.7159 14.6174 21.5602 14.6174 22.0809 15.1381L23.4951 16.5523C24.0158 17.073 24.0158 17.9172 23.4951 18.4379L22.0809 19.8521C21.5602 20.3728 20.7159 20.3728 20.1952 19.8521L18.781 18.4379ZM13.9141 22.0859C13.5236 22.4764 13.5236 23.1096 13.9141 23.5001L14.8569 24.4429C15.2475 24.8334 15.8806 24.8334 16.2712 24.4429L17.214 23.5001C17.6045 23.1096 17.6045 22.4764 17.214 22.0859L16.2712 21.1431C15.8806 20.7525 15.2475 20.7525 14.8569 21.1431L13.9141 22.0859Z" fill="#CE82FF"/>
</g>
<defs>
<clipPath id="clip0_54_5">
<rect width="32" height="32" fill="white"/>
</clipPath>
</defs>
</svg>
