<svg width="57" height="53" viewBox="0 0 57 53" fill="none" xmlns="http://www.w3.org/2000/svg">
<ellipse opacity="0.1" cx="28.1622" cy="26.1913" rx="27.9991" ry="26.1029" fill="#212353"/>
<path d="M27.962 22.3853C25.4195 22.3853 23.3687 24.4457 23.3687 27.0002C23.3687 29.5547 25.4195 31.6152 27.962 31.6152C30.5045 31.6152 32.5552 29.5547 32.5552 27.0002C32.5552 24.4457 30.5045 22.3853 27.962 22.3853ZM27.962 30.0006C26.3189 30.0006 24.9757 28.655 24.9757 27.0002C24.9757 25.3454 26.3149 23.9999 27.962 23.9999C29.609 23.9999 30.9482 25.3454 30.9482 27.0002C30.9482 28.655 29.605 30.0006 27.962 30.0006ZM33.8145 22.1965C33.8145 22.795 33.3348 23.2729 32.7431 23.2729C32.1475 23.2729 31.6718 22.7909 31.6718 22.1965C31.6718 21.6021 32.1515 21.1201 32.7431 21.1201C33.3348 21.1201 33.8145 21.6021 33.8145 22.1965ZM36.8567 23.289C36.7887 21.8471 36.4609 20.5698 35.4096 19.5175C34.3622 18.4652 33.0909 18.1358 31.6558 18.0635C30.1767 17.9792 25.7433 17.9792 24.2641 18.0635C22.833 18.1318 21.5617 18.4611 20.5104 19.5135C19.459 20.5658 19.1352 21.843 19.0632 23.285C18.9793 24.7711 18.9793 29.2254 19.0632 30.7115C19.1312 32.1534 19.459 33.4307 20.5104 34.483C21.5617 35.5353 22.829 35.8647 24.2641 35.937C25.7433 36.0213 30.1767 36.0213 31.6558 35.937C33.0909 35.8687 34.3622 35.5393 35.4096 34.483C36.4569 33.4307 36.7847 32.1534 36.8567 30.7115C36.9407 29.2254 36.9407 24.7751 36.8567 23.289ZM34.9458 32.3061C34.634 33.0933 34.0304 33.6998 33.2428 34.0171C32.0635 34.487 29.2652 34.3786 27.962 34.3786C26.6587 34.3786 23.8564 34.483 22.6811 34.0171C21.8975 33.7038 21.2939 33.0973 20.9781 32.3061C20.5104 31.1212 20.6183 28.3096 20.6183 27.0002C20.6183 25.6909 20.5144 22.8753 20.9781 21.6944C21.2899 20.9072 21.8935 20.3007 22.6811 19.9834C23.8604 19.5135 26.6587 19.6219 27.962 19.6219C29.2652 19.6219 32.0675 19.5175 33.2428 19.9834C34.0264 20.2967 34.63 20.9032 34.9458 21.6944C35.4136 22.8793 35.3056 25.6909 35.3056 27.0002C35.3056 28.3096 35.4136 31.1252 34.9458 32.3061Z" fill="white"/>
</svg>
