<svg width="34" height="35" viewBox="0 0 34 35" fill="none" xmlns="http://www.w3.org/2000/svg">
<path fill-rule="evenodd" clip-rule="evenodd" d="M34 17.5C34 26.8888 26.3888 34.5 17 34.5C7.61116 34.5 0 26.8888 0 17.5C0 8.11116 7.61116 0.5 17 0.5C26.3888 0.5 34 8.11116 34 17.5ZM17 9.5C17.5523 9.5 18 9.94771 18 10.5V17H24.5C25.0523 17 25.5 17.4477 25.5 18C25.5 18.5523 25.0523 19 24.5 19H18V25.5C18 26.0523 17.5523 26.5 17 26.5C16.4477 26.5 16 26.0523 16 25.5V19H9.5C8.94771 19 8.5 18.5523 8.5 18C8.5 17.4477 8.94771 17 9.5 17H16V10.5C16 9.94771 16.4477 9.5 17 9.5Z" fill="#933EAC"/>
</svg>
