<svg width="20" height="20" viewBox="0 0 20 20" fill="none" xmlns="http://www.w3.org/2000/svg">
<path fill-rule="evenodd" clip-rule="evenodd" d="M9.9987 0.833984C10.4589 0.833984 10.832 1.20708 10.832 1.66732V9.16732H18.332C18.7923 9.16732 19.1654 9.54041 19.1654 10.0007C19.1654 10.4609 18.7923 10.834 18.332 10.834H10.832V18.334C10.832 18.7942 10.4589 19.1673 9.9987 19.1673C9.53846 19.1673 9.16536 18.7942 9.16536 18.334V10.834H1.66536C1.20513 10.834 0.832031 10.4609 0.832031 10.0007C0.832031 9.54041 1.20513 9.16732 1.66536 9.16732H9.16536V1.66732C9.16536 1.20708 9.53846 0.833984 9.9987 0.833984Z" fill="#17696A"/>
</svg>
