<svg width="41" height="43" viewBox="0 0 41 43" fill="none" xmlns="http://www.w3.org/2000/svg">
<circle cx="20.5" cy="22.5" r="20.5" fill="#743799"/>
<path d="M22.4736 33.1836C21.7796 33.1836 21.1872 33.1328 20.6963 33.0312C20.2054 32.9297 19.7484 32.7646 19.3252 32.5361C18.9105 32.3076 18.4661 32.0114 17.9922 31.6475L17.5479 32.8154H13.4473V26.6328H17.5225C17.7848 27.3438 18.1868 27.8473 18.7285 28.1436C19.2786 28.4313 19.9515 28.5752 20.7471 28.5752C21.238 28.5752 21.6569 28.4779 22.0039 28.2832C22.3509 28.0801 22.5244 27.8135 22.5244 27.4834C22.5244 27.0687 22.3467 26.7598 21.9912 26.5566C21.6357 26.3451 21.1364 26.1504 20.4932 25.9727C19.6722 25.7526 18.9274 25.5199 18.2588 25.2744C17.5986 25.029 17.0062 24.7751 16.4814 24.5127C15.432 23.988 14.5856 23.2432 13.9424 22.2783C13.2992 21.3135 12.9775 20.0312 12.9775 18.4316C12.9775 17.2044 13.2441 16.1211 13.7773 15.1816C14.3021 14.2507 15.0553 13.527 16.0371 13.0107C17.0273 12.486 18.1911 12.2236 19.5283 12.2236C21.1618 12.2236 22.4525 12.7441 23.4004 13.7852L24.0479 12.5918H27.6914V18.6475H23.7939C23.43 17.8857 23.028 17.3568 22.5879 17.0605C22.1478 16.7643 21.5426 16.6162 20.7725 16.6162C20.1885 16.6162 19.7357 16.722 19.4141 16.9336C19.0924 17.1367 18.9316 17.4202 18.9316 17.7842C18.9316 18.1904 19.1644 18.4993 19.6299 18.7109C20.0869 18.931 20.7386 19.1341 21.585 19.3203C23.0661 19.6589 24.3441 20.0863 25.4189 20.6025C26.4684 21.1188 27.3063 21.8509 27.9326 22.7988C28.5674 23.7383 28.8848 24.9528 28.8848 26.4424C28.8848 27.7035 28.6224 28.846 28.0977 29.8701C27.5645 30.8942 26.807 31.7025 25.8252 32.2949C24.8519 32.8874 23.7347 33.1836 22.4736 33.1836Z" fill="#FFFCFC"/>
<path d="M21.5 39.8623L23.1974 40.9365C23.5083 41.1334 23.8887 40.8424 23.8069 40.4743L23.357 38.4542L24.8581 37.0932C25.1321 36.845 24.9849 36.3742 24.6249 36.3443L22.6494 36.1688L21.8763 34.26C21.7372 33.9133 21.2628 33.9133 21.1237 34.26L20.3506 36.1645L18.3751 36.34C18.0151 36.37 17.8679 36.8407 18.1419 37.089L19.643 38.4499L19.1931 40.47C19.1113 40.8381 19.4917 41.1291 19.8026 40.9322L21.5 39.8623Z" fill="#FFC107"/>
</svg>
