<svg width="17" height="16" viewBox="0 0 17 16" fill="none" xmlns="http://www.w3.org/2000/svg">
<path d="M8.61963 0C4.20825 0 0.619629 3.58862 0.619629 8C0.619629 12.4114 4.20825 16 8.61963 16C13.031 16 16.6196 12.4114 16.6196 8C16.6196 3.58862 13.031 0 8.61963 0ZM12.4243 12.1379C12.2943 12.2679 12.1237 12.3334 11.953 12.3334C11.7823 12.3334 11.6116 12.2679 11.4817 12.1379L8.14832 8.80469C8.02295 8.68005 7.953 8.51062 7.953 8.33337V4C7.953 3.63135 8.25159 3.33337 8.61963 3.33337C8.98767 3.33337 9.28625 3.63135 9.28625 4V8.05737L12.4243 11.1953C12.6849 11.4561 12.6849 11.8773 12.4243 12.1379Z" fill="#141720"/>
</svg>
