<svg width="40" height="41" viewBox="0 0 40 41" fill="none" xmlns="http://www.w3.org/2000/svg">
<path fill-rule="evenodd" clip-rule="evenodd" d="M37 20.5C37 29.8888 29.3888 37.5 20 37.5C10.6112 37.5 3 29.8888 3 20.5C3 11.1112 10.6112 3.5 20 3.5C29.3888 3.5 37 11.1112 37 20.5ZM20 12.5C20.5523 12.5 21 12.9477 21 13.5V20H27.5C28.0523 20 28.5 20.4477 28.5 21C28.5 21.5523 28.0523 22 27.5 22H21V28.5C21 29.0523 20.5523 29.5 20 29.5C19.4477 29.5 19 29.0523 19 28.5V22H12.5C11.9477 22 11.5 21.5523 11.5 21C11.5 20.4477 11.9477 20 12.5 20H19V13.5C19 12.9477 19.4477 12.5 20 12.5Z" fill="#933EAC"/>
</svg>
