<svg width="34" height="34" viewBox="0 0 34 34" fill="none" xmlns="http://www.w3.org/2000/svg">
<g clip-path="url(#clip0_48_7)">
<path d="M17 34C26.3888 34 34 26.3888 34 17C34 7.61116 26.3888 0 17 0C7.61116 0 0 7.61116 0 17C0 26.3888 7.61116 34 17 34Z" fill="#F1F0F0"/>
<path d="M18 12C18 11.4477 17.5523 11 17 11C16.4477 11 16 11.4477 16 12V24C16 24.5523 16.4477 25 17 25C17.5523 25 18 24.5523 18 24V12Z" fill="white"/>
<path d="M17.7577 10.3436C17.3671 9.95303 16.734 9.95303 16.3435 10.3436C15.9529 10.7341 15.9529 11.3672 16.3435 11.7578L22.0003 17.4146C22.3908 17.8051 23.024 17.8051 23.4145 17.4146C23.8051 17.0241 23.8051 16.3909 23.4145 16.0004L17.7577 10.3436Z" fill="white"/>
<path d="M16.4141 10.3434C16.8046 9.95291 17.4378 9.95291 17.8283 10.3434C18.2188 10.734 18.2188 11.3671 17.8283 11.7576L12.1714 17.4145C11.7809 17.805 11.1478 17.805 10.7572 17.4145C10.3667 17.024 10.3667 16.3908 10.7572 16.0003L16.4141 10.3434Z" fill="white"/>
</g>
<defs>
<clipPath id="clip0_48_7">
<rect width="34" height="34" fill="white"/>
</clipPath>
</defs>
</svg>
