<svg width="21" height="21" viewBox="0 0 21 21" fill="none" xmlns="http://www.w3.org/2000/svg">
<path opacity="0.2" fill-rule="evenodd" clip-rule="evenodd" d="M10.5 21C16.299 21 21 16.299 21 10.5C21 4.70101 16.299 0 10.5 0C4.70101 0 0 4.70101 0 10.5C0 16.299 4.70101 21 10.5 21Z" fill="url(#paint0_linear_106_268)"/>
<path opacity="0.2" fill-rule="evenodd" clip-rule="evenodd" d="M10.5 18C14.6421 18 18 14.6421 18 10.5C18 6.35786 14.6421 3 10.5 3C6.35786 3 3 6.35786 3 10.5C3 14.6421 6.35786 18 10.5 18Z" fill="url(#paint1_linear_106_268)"/>
<path opacity="0.2" fill-rule="evenodd" clip-rule="evenodd" d="M10.5 14C12.433 14 14 12.433 14 10.5C14 8.567 12.433 7 10.5 7C8.567 7 7 8.567 7 10.5C7 12.433 8.567 14 10.5 14Z" fill="url(#paint2_linear_106_268)"/>
<defs>
<linearGradient id="paint0_linear_106_268" x1="11.55" y1="-3.30556" x2="12.7348" y2="33.8955" gradientUnits="userSpaceOnUse">
<stop/>
<stop offset="1" stop-color="#5B5B5B"/>
</linearGradient>
<linearGradient id="paint1_linear_106_268" x1="11.25" y1="0.638889" x2="12.0963" y2="27.2111" gradientUnits="userSpaceOnUse">
<stop/>
<stop offset="1" stop-color="#5B5B5B"/>
</linearGradient>
<linearGradient id="paint2_linear_106_268" x1="10.85" y1="5.89815" x2="11.2449" y2="18.2985" gradientUnits="userSpaceOnUse">
<stop stop-color="#111111"/>
<stop offset="1" stop-color="#272727"/>
</linearGradient>
</defs>
</svg>
