<svg width="57" height="53" viewBox="0 0 57 53" fill="none" xmlns="http://www.w3.org/2000/svg">
<ellipse opacity="0.1" cx="28.4845" cy="26.1913" rx="27.9991" ry="26.1029" fill="#212353"/>
<path fill-rule="evenodd" clip-rule="evenodd" d="M27.2668 23.5671L27.2256 22.7885C27.102 20.7706 28.1866 18.9275 29.9027 18.2126C30.5342 17.9583 31.605 17.9265 32.3052 18.149C32.5797 18.2444 33.1014 18.5621 33.4721 18.8481L34.1448 19.3725L34.8861 19.1024C35.298 18.9593 35.8471 18.721 36.0942 18.5621C36.3276 18.4191 36.5335 18.3396 36.5335 18.3873C36.5335 18.6574 36.0256 19.579 35.6 20.0874C35.0234 20.8024 35.1882 20.866 36.3551 20.3893C37.0553 20.1192 37.0689 20.1192 36.9317 20.421C36.8493 20.58 36.4237 21.1361 35.9706 21.6445C35.2018 22.5184 35.1607 22.6138 35.1607 23.3446C35.1607 24.4727 34.6939 26.8243 34.2271 28.1113C33.3622 30.5264 31.5089 33.0209 29.6555 34.2761C27.0471 36.0398 23.5738 36.4846 20.6496 35.4519C19.6749 35.1023 18 34.2125 18 34.0537C18 34.006 18.5079 33.9424 19.1258 33.9266C20.4162 33.8948 21.7067 33.4816 22.805 32.7508L23.5464 32.2424L22.6951 31.9087C21.487 31.432 20.4025 30.3357 20.128 29.3029C20.0455 28.9693 20.073 28.9533 20.8418 28.9533L21.6381 28.9375L20.9654 28.5721C20.1691 28.1113 19.4415 27.3327 19.0845 26.5382C18.8237 25.9663 18.4943 24.5204 18.5904 24.4092C18.6178 24.3615 18.9061 24.4568 19.2356 24.5839C20.1828 24.9811 20.3064 24.8858 19.7573 24.2185C18.7276 23.011 18.4118 21.2155 18.9061 19.5154L19.1395 18.7528L20.0455 19.7855C21.8989 21.867 24.0818 23.1063 26.5803 23.4718L27.2668 23.5671Z" fill="white"/>
</svg>
