<svg width="152" height="152" viewBox="0 0 152 152" fill="none" xmlns="http://www.w3.org/2000/svg">
<path d="M152 76C152 117.974 117.974 152 76 152C34.0264 152 0 117.974 0 76C0 34.0264 34.0264 0 76 0C117.974 0 152 34.0264 152 76Z" fill="#743799"/>
<path d="M83.3169 115.607C80.744 115.607 78.5476 115.419 76.7277 115.043C74.9078 114.666 73.2135 114.054 71.6446 113.207C70.1072 112.36 68.4599 111.262 66.7027 109.913L65.0555 114.243H49.8533V91.3216H64.9613C65.934 93.9573 67.4244 95.8243 69.4325 96.9224C71.4721 97.9893 73.9665 98.5227 76.916 98.5227C78.7358 98.5227 80.289 98.1618 81.5755 97.4402C82.8619 96.6871 83.5051 95.6987 83.5051 94.475C83.5051 92.9376 82.8462 91.7923 81.5284 91.0393C80.2106 90.2548 78.3593 89.5332 75.9747 88.8742C72.9311 88.0584 70.1699 87.1956 67.6911 86.2856C65.2437 85.3757 63.0473 84.4344 61.1019 83.4617C57.2112 81.5163 54.0735 78.7551 51.6888 75.1782C49.3042 71.6012 48.1119 66.8476 48.1119 60.9173C48.1119 56.3676 49.1002 52.3514 51.077 48.8685C53.0224 45.417 55.8149 42.7343 59.4547 40.8203C63.1258 38.8749 67.4401 37.9022 72.3977 37.9022C78.4534 37.9022 83.2384 39.8319 86.7527 43.6913L89.153 39.2671H102.661V61.7174H88.2117C86.8625 58.8935 85.3721 56.9324 83.7405 55.8342C82.1089 54.736 79.8654 54.1869 77.0101 54.1869C74.8451 54.1869 73.1664 54.5791 71.9741 55.3636C70.7818 56.1166 70.1856 57.1677 70.1856 58.517C70.1856 60.0231 71.0485 61.1683 72.7742 61.9527C74.4686 62.7685 76.8846 63.5216 80.0223 64.2119C85.5133 65.467 90.2512 67.0515 94.2361 68.9655C98.1268 70.8795 101.233 73.5936 103.555 77.1079C105.908 80.5907 107.085 85.0933 107.085 90.6157C107.085 95.2908 106.112 99.5267 104.167 103.323C102.19 107.12 99.3819 110.116 95.7422 112.313C92.1338 114.509 87.9921 115.607 83.3169 115.607Z" fill="#FFFCFC"/>
</svg>
