<svg width="115" height="48" viewBox="0 0 115 48" fill="none" xmlns="http://www.w3.org/2000/svg">
<path d="M60.776 30.7173C59.416 30.7173 58.16 30.5493 57.008 30.2133C55.872 29.8613 54.896 29.3813 54.08 28.7733L55.04 26.3493C55.584 26.7333 56.152 27.0613 56.744 27.3333C57.336 27.5893 57.968 27.7893 58.64 27.9333C59.312 28.0613 60.024 28.1253 60.776 28.1253C62.04 28.1253 62.952 27.9173 63.512 27.5013C64.072 27.0853 64.352 26.5413 64.352 25.8693C64.352 25.2773 64.16 24.8293 63.776 24.5253C63.392 24.2053 62.704 23.9413 61.712 23.7333L59 23.1813C57.448 22.8613 56.288 22.3253 55.52 21.5733C54.752 20.8213 54.368 19.8133 54.368 18.5493C54.368 17.4933 54.648 16.5733 55.208 15.7893C55.768 15.0053 56.552 14.3973 57.56 13.9653C58.568 13.5333 59.744 13.3173 61.088 13.3173C62.288 13.3173 63.4 13.4933 64.424 13.8453C65.448 14.1813 66.304 14.6693 66.992 15.3093L66.032 17.6133C65.344 17.0373 64.592 16.6133 63.776 16.3413C62.96 16.0533 62.048 15.9093 61.04 15.9093C59.904 15.9093 59.016 16.1333 58.376 16.5813C57.752 17.0133 57.44 17.6133 57.44 18.3813C57.44 18.9733 57.632 19.4453 58.016 19.7973C58.416 20.1493 59.088 20.4213 60.032 20.6133L62.72 21.1413C64.32 21.4613 65.504 21.9893 66.272 22.7253C67.04 23.4453 67.424 24.4213 67.424 25.6533C67.424 26.6613 67.152 27.5493 66.608 28.3173C66.064 29.0693 65.296 29.6613 64.304 30.0933C63.312 30.5093 62.136 30.7173 60.776 30.7173ZM75.9568 30.7173C73.9248 30.7173 72.3328 30.1573 71.1808 29.0373C70.0288 27.9173 69.4528 26.3813 69.4528 24.4293C69.4528 23.1653 69.7008 22.0613 70.1968 21.1173C70.6928 20.1733 71.3808 19.4373 72.2608 18.9093C73.1568 18.3813 74.1968 18.1173 75.3808 18.1173C76.5488 18.1173 77.5248 18.3653 78.3088 18.8613C79.0928 19.3573 79.6848 20.0533 80.0848 20.9493C80.5008 21.8453 80.7088 22.8933 80.7088 24.0933V24.8853H71.8768V23.3013H78.5728L78.1648 23.6373C78.1648 22.5173 77.9248 21.6613 77.4448 21.0693C76.9808 20.4773 76.3008 20.1813 75.4048 20.1813C74.4128 20.1813 73.6448 20.5333 73.1008 21.2373C72.5728 21.9413 72.3088 22.9253 72.3088 24.1893V24.5013C72.3088 25.8133 72.6288 26.7973 73.2688 27.4533C73.9248 28.0933 74.8448 28.4133 76.0288 28.4133C76.7168 28.4133 77.3568 28.3253 77.9488 28.1493C78.5568 27.9573 79.1328 27.6533 79.6768 27.2373L80.5648 29.2533C79.9888 29.7173 79.3008 30.0773 78.5008 30.3333C77.7008 30.5893 76.8528 30.7173 75.9568 30.7173ZM82.6051 30.4773V28.5093L90.1891 19.8933V20.6133H82.6051V18.3573H92.9011V20.3253L85.2451 29.0133L85.2211 28.2213H93.1651V30.4773H82.6051ZM95.7179 30.4773V18.3573H98.7179V30.4773H95.7179ZM95.5499 16.0773V13.1493H98.8859V16.0773H95.5499ZM101.976 30.4773V21.3813C101.976 20.8853 101.96 20.3813 101.928 19.8693C101.896 19.3573 101.848 18.8533 101.784 18.3573H104.688L104.928 20.7573H104.64C105.024 19.9093 105.592 19.2613 106.344 18.8133C107.096 18.3493 107.968 18.1173 108.96 18.1173C110.384 18.1173 111.456 18.5173 112.176 19.3173C112.896 20.1173 113.256 21.3653 113.256 23.0613V30.4773H110.256V23.2053C110.256 22.2293 110.064 21.5333 109.68 21.1173C109.312 20.6853 108.752 20.4693 108 20.4693C107.072 20.4693 106.336 20.7573 105.792 21.3333C105.248 21.9093 104.976 22.6773 104.976 23.6373V30.4773H101.976Z" fill="#111111"/>
<circle cx="20.5" cy="22.5" r="20.5" fill="#743799"/>
<path d="M22.4736 33.1836C21.7796 33.1836 21.1872 33.1328 20.6963 33.0312C20.2054 32.9297 19.7484 32.7646 19.3252 32.5361C18.9105 32.3076 18.4661 32.0114 17.9922 31.6475L17.5479 32.8154H13.4473V26.6328H17.5225C17.7848 27.3438 18.1868 27.8473 18.7285 28.1436C19.2786 28.4313 19.9515 28.5752 20.7471 28.5752C21.238 28.5752 21.6569 28.4779 22.0039 28.2832C22.3509 28.0801 22.5244 27.8135 22.5244 27.4834C22.5244 27.0687 22.3467 26.7598 21.9912 26.5566C21.6357 26.3451 21.1364 26.1504 20.4932 25.9727C19.6722 25.7526 18.9274 25.5199 18.2588 25.2744C17.5986 25.029 17.0062 24.7751 16.4814 24.5127C15.432 23.988 14.5856 23.2432 13.9424 22.2783C13.2992 21.3135 12.9775 20.0312 12.9775 18.4316C12.9775 17.2044 13.2441 16.1211 13.7773 15.1816C14.3021 14.2507 15.0553 13.527 16.0371 13.0107C17.0273 12.486 18.1911 12.2236 19.5283 12.2236C21.1618 12.2236 22.4525 12.7441 23.4004 13.7852L24.0479 12.5918H27.6914V18.6475H23.7939C23.43 17.8857 23.028 17.3568 22.5879 17.0605C22.1478 16.7643 21.5426 16.6162 20.7725 16.6162C20.1885 16.6162 19.7357 16.722 19.4141 16.9336C19.0924 17.1367 18.9316 17.4202 18.9316 17.7842C18.9316 18.1904 19.1644 18.4993 19.6299 18.7109C20.0869 18.931 20.7386 19.1341 21.585 19.3203C23.0661 19.6589 24.3441 20.0863 25.4189 20.6025C26.4684 21.1188 27.3063 21.8509 27.9326 22.7988C28.5674 23.7383 28.8848 24.9528 28.8848 26.4424C28.8848 27.7035 28.6224 28.846 28.0977 29.8701C27.5645 30.8942 26.807 31.7025 25.8252 32.2949C24.8519 32.8874 23.7347 33.1836 22.4736 33.1836Z" fill="#FFFCFC"/>
</svg>
